<svg xmlns="http://www.w3.org/2000/svg" xmlns:xlink="http://www.w3.org/1999/xlink" viewBox="0 0 192.56 135.78"><defs><style>.cls-1,.cls-10,.cls-11,.cls-14,.cls-15,.cls-17,.cls-18,.cls-19,.cls-7,.cls-8,.cls-9{fill-rule:evenodd;}.cls-1{fill:url(#linear-gradient);}.cls-18,.cls-2,.cls-9{fill:#1d1d1b;}.cls-10,.cls-3{fill:#ffcf21;}.cls-4{fill:#2c55a2;}.cls-17,.cls-5{fill:#fff;}.cls-6{stroke:#fff;stroke-miterlimit:22.93;stroke-width:0.22px;fill:url(#linear-gradient-2);}.cls-7{fill:#ee7203;}.cls-8{fill:#fbf3a2;}.cls-11{fill:#ffed00;}.cls-12{fill:url(#radial-gradient);}.cls-13{fill:#a2270b;}.cls-14{fill:#5e7911;}.cls-15{fill:#fffbdc;}.cls-16{fill:none;stroke-width:0.11px;}.cls-16,.cls-17,.cls-18{stroke:#1d1d1b;stroke-miterlimit:2.61;}.cls-17,.cls-18{stroke-width:0.09px;}.cls-19{fill:url(#linear-gradient-4);}.cls-20{fill:url(#linear-gradient-5);}</style><linearGradient id="linear-gradient" x1="96.28" y1="68.54" x2="96.34" y2="74.15" gradientUnits="userSpaceOnUse"><stop offset="0" stop-color="#e6f5fe"/><stop offset="0.13" stop-color="#9ed7f1"/><stop offset="0.26" stop-color="#5bbbe6"/><stop offset="0.37" stop-color="#2aa7dd"/><stop offset="0.45" stop-color="#0b9bd8"/><stop offset="0.5" stop-color="#0096d6"/><stop offset="1" stop-color="#2c55a2"/></linearGradient><linearGradient id="linear-gradient-2" x1="95.98" y1="17.59" x2="96.58" y2="73.79" xlink:href="#linear-gradient"/><radialGradient id="radial-gradient" cx="96.31" cy="30.65" r="4.29" gradientUnits="userSpaceOnUse"><stop offset="0" stop-color="#ffed00"/><stop offset="1" stop-color="#fff7b2"/></radialGradient><linearGradient id="linear-gradient-4" x1="98.88" y1="56.19" x2="93.69" y2="56.19" gradientUnits="userSpaceOnUse"><stop offset="0" stop-color="#a76700"/><stop offset="0.05" stop-color="#b37504"/><stop offset="0.24" stop-color="#dca614"/><stop offset="0.38" stop-color="#f5c41d"/><stop offset="0.47" stop-color="#ffcf21"/><stop offset="0.6" stop-color="#ffcf21"/><stop offset="1" stop-color="#a76700"/></linearGradient><linearGradient id="linear-gradient-5" x1="100.44" y1="43.55" x2="92.11" y2="43.55" xlink:href="#linear-gradient-4"/></defs><g id="Capa_2" data-name="Capa 2"><g id="Capa_1-2" data-name="Capa 1"><path class="cls-2" d="M12.64,108.94h2v5.4a11,11,0,0,0,.08,1.67,1.62,1.62,0,0,0,.61,1,2.12,2.12,0,0,0,1.33.37A2,2,0,0,0,18,117a1.33,1.33,0,0,0,.52-.86,11,11,0,0,0,.09-1.69v-5.52h2v5.24a13.36,13.36,0,0,1-.16,2.53,2.81,2.81,0,0,1-.6,1.25,3.11,3.11,0,0,1-1.17.82,5.15,5.15,0,0,1-1.92.3,5.49,5.49,0,0,1-2.16-.33,3.1,3.1,0,0,1-1.17-.86,2.81,2.81,0,0,1-.56-1.1,11.54,11.54,0,0,1-.2-2.53Z"/><path class="cls-2" d="M22.73,118.91v-10h1.95l4.08,6.66v-6.66h1.87v10h-2l-4-6.5v6.5Z"/><path class="cls-2" d="M32.7,118.91v-10h2v10Z"/><path class="cls-2" d="M39.17,118.91l-3.56-10h2.18l2.52,7.38,2.44-7.38h2.13l-3.56,10Z"/><path class="cls-2" d="M45.91,118.91v-10H53.3v1.69H47.92v2.21h5v1.68h-5v2.71h5.57v1.68Z"/><path class="cls-2" d="M55.2,118.91v-10h4.24a7.21,7.21,0,0,1,2.32.27,2.31,2.31,0,0,1,1.16,1,2.85,2.85,0,0,1,.43,1.57,2.65,2.65,0,0,1-.66,1.85,3.15,3.15,0,0,1-2,.92,4.3,4.3,0,0,1,1.08.84A11.56,11.56,0,0,1,62.94,117l1.22,2H61.75l-1.45-2.17a13.62,13.62,0,0,0-1.06-1.46,1.49,1.49,0,0,0-.61-.42,3.47,3.47,0,0,0-1-.11h-.41v4.16Zm2-5.75H58.7a7.82,7.82,0,0,0,1.81-.12,1.09,1.09,0,0,0,.56-.42,1.3,1.3,0,0,0,.21-.75,1.21,1.21,0,0,0-.27-.82,1.29,1.29,0,0,0-.76-.39q-.24,0-1.47,0H57.21Z"/><path class="cls-2" d="M64.74,115.67l2-.19a2.32,2.32,0,0,0,.71,1.44,2.17,2.17,0,0,0,1.46.47,2.22,2.22,0,0,0,1.47-.42,1.23,1.23,0,0,0,.49-1,.91.91,0,0,0-.21-.6,1.71,1.71,0,0,0-.72-.43c-.24-.08-.77-.23-1.61-.44a5.33,5.33,0,0,1-2.27-1,2.58,2.58,0,0,1-.92-2,2.54,2.54,0,0,1,.43-1.42,2.72,2.72,0,0,1,1.24-1,5,5,0,0,1,2-.35,4.19,4.19,0,0,1,2.83.83,2.88,2.88,0,0,1,1,2.19l-2,.09a1.68,1.68,0,0,0-.55-1.1,2,2,0,0,0-1.28-.34,2.3,2.3,0,0,0-1.37.36.73.73,0,0,0-.32.62.75.75,0,0,0,.3.6,5.07,5.07,0,0,0,1.85.67,9.5,9.5,0,0,1,2.17.72,2.69,2.69,0,0,1,1.1,1,2.93,2.93,0,0,1,.4,1.59,3,3,0,0,1-.47,1.6A2.85,2.85,0,0,1,71,118.72a5.68,5.68,0,0,1-2.17.37,4.31,4.31,0,0,1-2.9-.88A3.76,3.76,0,0,1,64.74,115.67Z"/><path class="cls-2" d="M74.47,118.91v-10h2v10Z"/><path class="cls-2" d="M78.39,108.94h3.68a7.55,7.55,0,0,1,1.9.19,3.44,3.44,0,0,1,1.5.92,4.34,4.34,0,0,1,1,1.62,7.23,7.23,0,0,1,.33,2.35,6.63,6.63,0,0,1-.31,2.12,4.3,4.3,0,0,1-1.07,1.76,3.48,3.48,0,0,1-1.41.8,6.1,6.1,0,0,1-1.78.21H78.39Zm2,1.69v6.6h1.5a5.09,5.09,0,0,0,1.22-.1,1.94,1.94,0,0,0,.81-.41,2,2,0,0,0,.52-1,6.38,6.38,0,0,0,.21-1.83,5.75,5.75,0,0,0-.21-1.77,2.25,2.25,0,0,0-.57-1,2,2,0,0,0-.93-.47,9.61,9.61,0,0,0-1.65-.09Z"/><path class="cls-2" d="M97.44,118.91H95.25l-.87-2.26h-4l-.83,2.26H87.44l3.88-10h2.13ZM93.73,115l-1.37-3.7L91,115Z"/><path class="cls-2" d="M98.5,108.94h3.68a7.4,7.4,0,0,1,1.89.19,3.33,3.33,0,0,1,1.5.92,4.36,4.36,0,0,1,1,1.62,7.54,7.54,0,0,1,.32,2.35,6.65,6.65,0,0,1-.3,2.12,4.4,4.4,0,0,1-1.07,1.76,3.55,3.55,0,0,1-1.41.8,6.14,6.14,0,0,1-1.78.21H98.5Zm2,1.69v6.6H102a5.09,5.09,0,0,0,1.22-.1,1.83,1.83,0,0,0,.81-.41,2.05,2.05,0,0,0,.53-1,6.81,6.81,0,0,0,.2-1.83,6.14,6.14,0,0,0-.2-1.77,2.47,2.47,0,0,0-.57-1,2.05,2.05,0,0,0-.93-.47,9.75,9.75,0,0,0-1.66-.09Z"/><path class="cls-2" d="M118.8,115.25l2,.61a4.43,4.43,0,0,1-1.49,2.43,4.32,4.32,0,0,1-2.65.79,4.26,4.26,0,0,1-3.26-1.36,5.19,5.19,0,0,1-1.28-3.71,5.44,5.44,0,0,1,1.29-3.86,4.38,4.38,0,0,1,3.37-1.38,4.11,4.11,0,0,1,3,1.09,3.76,3.76,0,0,1,1,1.83l-2,.48a2.09,2.09,0,0,0-.73-1.23,2.13,2.13,0,0,0-1.37-.45,2.24,2.24,0,0,0-1.79.8,3.9,3.9,0,0,0-.7,2.58,4.22,4.22,0,0,0,.68,2.69,2.24,2.24,0,0,0,1.77.8,2,2,0,0,0,1.38-.51A3,3,0,0,0,118.8,115.25Z"/><path class="cls-2" d="M122.07,114a6.24,6.24,0,0,1,.46-2.56,4.48,4.48,0,0,1,.92-1.36,3.88,3.88,0,0,1,1.29-.9,5.53,5.53,0,0,1,2.15-.4,4.67,4.67,0,0,1,3.52,1.37,6.08,6.08,0,0,1,0,7.58,5.24,5.24,0,0,1-7,0A5.16,5.16,0,0,1,122.07,114Zm2.07-.07a3.71,3.71,0,0,0,.79,2.57,2.54,2.54,0,0,0,2,.87,2.51,2.51,0,0,0,2-.87,3.78,3.78,0,0,0,.78-2.6,3.68,3.68,0,0,0-.76-2.55,2.54,2.54,0,0,0-2-.85,2.57,2.57,0,0,0-2,.86A3.79,3.79,0,0,0,124.14,113.92Z"/><path class="cls-2" d="M133.36,118.91V109h2v8.2h5v1.68Z"/><path class="cls-2" d="M141.81,118.91v-10h7.39v1.69h-5.38v2.21h5v1.68h-5v2.71h5.57v1.68Z"/><path class="cls-2" d="M155.73,115.25v-1.68h4.34v4a5.72,5.72,0,0,1-1.84,1.07,6.64,6.64,0,0,1-2.43.47,5.4,5.4,0,0,1-2.72-.66,4.12,4.12,0,0,1-1.75-1.87,6.09,6.09,0,0,1-.58-2.66,5.66,5.66,0,0,1,.65-2.76,4.35,4.35,0,0,1,1.91-1.86,5.16,5.16,0,0,1,2.39-.5,4.73,4.73,0,0,1,2.89.78,3.52,3.52,0,0,1,1.35,2.15l-2,.38a2.08,2.08,0,0,0-.79-1.16,2.42,2.42,0,0,0-1.45-.43,2.73,2.73,0,0,0-2.1.84,3.51,3.51,0,0,0-.78,2.48,3.88,3.88,0,0,0,.79,2.66,2.63,2.63,0,0,0,2.07.89,3.33,3.33,0,0,0,1.26-.25,3.9,3.9,0,0,0,1.09-.6v-1.26Z"/><path class="cls-2" d="M161.86,118.91v-10h2v10Z"/><path class="cls-2" d="M165.38,114a6.24,6.24,0,0,1,.46-2.56,4.33,4.33,0,0,1,.93-1.36,3.74,3.74,0,0,1,1.28-.9,5.53,5.53,0,0,1,2.15-.4,4.67,4.67,0,0,1,3.52,1.37,6.08,6.08,0,0,1,0,7.58,5.24,5.24,0,0,1-7,0A5.16,5.16,0,0,1,165.38,114Zm2.07-.07a3.71,3.71,0,0,0,.79,2.57,2.69,2.69,0,0,0,4,0,3.83,3.83,0,0,0,.77-2.6,3.73,3.73,0,0,0-.75-2.55,2.58,2.58,0,0,0-2-.85,2.54,2.54,0,0,0-2,.86A3.74,3.74,0,0,0,167.45,113.92Z"/><path class="cls-2" d="M0,135.61v-10H3l1.81,6.8,1.79-6.8h3v10H7.76v-7.84l-2,7.84H3.84l-2-7.84v7.84Z"/><path class="cls-2" d="M20.61,135.61H18.42l-.87-2.26h-4l-.83,2.26H10.61l3.88-10h2.13Zm-3.71-3.94L15.53,128l-1.34,3.7Z"/><path class="cls-2" d="M23,135.61v-4.19l-3.65-5.77h2.36l2.35,3.94,2.3-3.94h2.31L25,131.43v4.18Z"/><path class="cls-2" d="M29.27,130.69a6.39,6.39,0,0,1,.46-2.55,4.74,4.74,0,0,1,.93-1.37,4,4,0,0,1,1.29-.9,5.48,5.48,0,0,1,2.14-.39,4.66,4.66,0,0,1,3.53,1.37,6.1,6.1,0,0,1,0,7.57,4.66,4.66,0,0,1-3.51,1.36,4.69,4.69,0,0,1-3.53-1.35A5.14,5.14,0,0,1,29.27,130.69Zm2.08-.07a3.74,3.74,0,0,0,.78,2.57,2.7,2.7,0,0,0,4,0,3.84,3.84,0,0,0,.77-2.6,3.76,3.76,0,0,0-.75-2.56,2.79,2.79,0,0,0-4,0A3.76,3.76,0,0,0,31.35,130.62Z"/><path class="cls-2" d="M40.52,135.61v-10h4.23a7.17,7.17,0,0,1,2.32.27,2.25,2.25,0,0,1,1.16,1,2.88,2.88,0,0,1,.44,1.57,2.64,2.64,0,0,1-.66,1.85,3.18,3.18,0,0,1-2,.93,4.66,4.66,0,0,1,1.07.83,10.87,10.87,0,0,1,1.15,1.62l1.22,1.94H47.07l-1.45-2.16A12.38,12.38,0,0,0,44.55,132a1.5,1.5,0,0,0-.6-.41,3.09,3.09,0,0,0-1-.12h-.41v4.16Zm2-5.75H44a7.89,7.89,0,0,0,1.81-.12,1.08,1.08,0,0,0,.56-.42,1.27,1.27,0,0,0,.2-.75,1.23,1.23,0,0,0-.26-.81,1.22,1.22,0,0,0-.76-.39c-.17,0-.66,0-1.47,0H42.53Z"/><path class="cls-2" d="M54.42,125.65H58.1a7.1,7.1,0,0,1,1.9.19,3.35,3.35,0,0,1,1.5.92,4.3,4.3,0,0,1,1,1.61,7.29,7.29,0,0,1,.33,2.36,6.4,6.4,0,0,1-.31,2.12,4.36,4.36,0,0,1-1.07,1.76,3.54,3.54,0,0,1-1.41.79,6.1,6.1,0,0,1-1.78.21H54.42Zm2,1.68v6.6h1.5a5.73,5.73,0,0,0,1.21-.09,1.83,1.83,0,0,0,.82-.42,2,2,0,0,0,.52-1,6.26,6.26,0,0,0,.21-1.82,5.87,5.87,0,0,0-.21-1.78,2.16,2.16,0,0,0-.57-1,1.87,1.87,0,0,0-.93-.47,9.28,9.28,0,0,0-1.65-.1Z"/><path class="cls-2" d="M64.48,135.61v-10h7.39v1.68H66.5v2.21h5v1.68h-5v2.71h5.56v1.68Z"/><path class="cls-2" d="M84,132l1.95.62A4.34,4.34,0,0,1,84.47,135a4.71,4.71,0,0,1-5.91-.56,5.21,5.21,0,0,1-1.28-3.71,5.41,5.41,0,0,1,1.29-3.86A4.39,4.39,0,0,1,82,125.48a4.17,4.17,0,0,1,3,1.08,4,4,0,0,1,1,1.83l-2,.48a2,2,0,0,0-.74-1.22,2.08,2.08,0,0,0-1.36-.45A2.28,2.28,0,0,0,80,128a4,4,0,0,0-.68,2.58,4.12,4.12,0,0,0,.68,2.69,2.18,2.18,0,0,0,1.76.8,2,2,0,0,0,1.38-.51A2.93,2.93,0,0,0,84,132Z"/><path class="cls-2" d="M87.67,125.65h2v5.4a11.36,11.36,0,0,0,.07,1.66,1.58,1.58,0,0,0,.62,1,2.09,2.09,0,0,0,1.32.37,2,2,0,0,0,1.3-.35,1.37,1.37,0,0,0,.52-.86,11,11,0,0,0,.09-1.69v-5.51h2v5.23a13.49,13.49,0,0,1-.16,2.54,2.86,2.86,0,0,1-.6,1.25,3.1,3.1,0,0,1-1.18.81,5.13,5.13,0,0,1-1.91.3,5.51,5.51,0,0,1-2.17-.33,3,3,0,0,1-1.16-.85,2.68,2.68,0,0,1-.57-1.11,12.13,12.13,0,0,1-.2-2.53Z"/><path class="cls-2" d="M97.76,135.61v-10h2l4.08,6.65v-6.65h1.87v10h-2l-4-6.49v6.49Z"/><path class="cls-2" d="M107.79,125.65h3.67a7.05,7.05,0,0,1,1.9.19,3.24,3.24,0,0,1,1.5.92,4.17,4.17,0,0,1,1,1.61,7.29,7.29,0,0,1,.33,2.36,6.4,6.4,0,0,1-.31,2.12,4.46,4.46,0,0,1-1.06,1.76,3.52,3.52,0,0,1-1.42.79,6,6,0,0,1-1.78.21h-3.78Zm2,1.68v6.6h1.5a5.84,5.84,0,0,0,1.22-.09,1.85,1.85,0,0,0,.81-.42,2.14,2.14,0,0,0,.53-1,6.68,6.68,0,0,0,.2-1.82,6.26,6.26,0,0,0-.2-1.78,2.36,2.36,0,0,0-.57-1,2,2,0,0,0-.94-.47,9.28,9.28,0,0,0-1.65-.1Z"/><path class="cls-2" d="M117.79,135.61v-10h2v10Z"/><path class="cls-2" d="M121.73,135.61v-10h2l4.08,6.65v-6.65h1.87v10h-2l-4-6.49v6.49Z"/><path class="cls-2" d="M140.75,135.61h-2.19l-.87-2.26h-4l-.82,2.26h-2.14l3.88-10h2.13Zm-3.7-3.94-1.38-3.7-1.34,3.7Z"/><path class="cls-2" d="M141.79,135.61v-10h3l1.81,6.8,1.79-6.8h3v10h-1.87v-7.84l-2,7.84h-1.94l-2-7.84v7.84Z"/><path class="cls-2" d="M162.4,135.61h-2.19l-.87-2.26h-4l-.82,2.26H152.4l3.88-10h2.13Zm-3.7-3.94-1.38-3.7-1.34,3.7Z"/><path class="cls-2" d="M163.47,135.61v-10h4.24a7.21,7.21,0,0,1,2.32.27,2.29,2.29,0,0,1,1.16,1,2.88,2.88,0,0,1,.44,1.57,2.64,2.64,0,0,1-.67,1.85,3.13,3.13,0,0,1-2,.93,4.52,4.52,0,0,1,1.08.83,10.87,10.87,0,0,1,1.15,1.62l1.21,1.94H170l-1.46-2.16a12.74,12.74,0,0,0-1.06-1.47,1.5,1.5,0,0,0-.6-.41,3.12,3.12,0,0,0-1-.12h-.4v4.16Zm2-5.75H167a7.82,7.82,0,0,0,1.81-.12,1.1,1.1,0,0,0,.57-.42,1.35,1.35,0,0,0,.2-.75,1.13,1.13,0,0,0-1-1.2c-.17,0-.66,0-1.47,0h-1.57Z"/><path class="cls-2" d="M179.9,132l1.95.62a4.4,4.4,0,0,1-1.49,2.42,4.71,4.71,0,0,1-5.91-.56,5.17,5.17,0,0,1-1.28-3.71,5.45,5.45,0,0,1,1.28-3.86,4.4,4.4,0,0,1,3.38-1.38,4.14,4.14,0,0,1,3,1.08,4,4,0,0,1,1,1.83l-2,.48a2.13,2.13,0,0,0-.74-1.22,2.1,2.1,0,0,0-1.36-.45,2.27,2.27,0,0,0-1.8.79,3.9,3.9,0,0,0-.69,2.58,4.18,4.18,0,0,0,.68,2.69,2.18,2.18,0,0,0,1.77.8,2,2,0,0,0,1.38-.51A3,3,0,0,0,179.9,132Z"/><path class="cls-2" d="M192.56,135.61h-2.19l-.87-2.26h-4l-.82,2.26h-2.14l3.88-10h2.13Zm-3.7-3.94-1.38-3.7-1.34,3.7Z"/><path class="cls-2" d="M96.28,0C76.23,0,60,20.37,60,45.5S76.23,91,96.28,91s36.31-20.37,36.31-45.5S116.33,0,96.28,0Z"/><path class="cls-3" d="M96.28,2.57c-18.51,0-33.52,19.22-33.52,42.93s15,42.93,33.52,42.93S129.8,69.21,129.8,45.5,114.79,2.57,96.28,2.57Z"/><path class="cls-4" d="M96.28,5.77c-17,0-30.68,17.79-30.68,39.73S79.33,85.23,96.28,85.23,127,67.44,127,45.5,113.22,5.77,96.28,5.77Z"/><path class="cls-3" d="M96.28,12.44c-13.52,0-24.48,14.8-24.48,33.06s11,33.06,24.48,33.06,24.48-14.8,24.48-33.06S109.8,12.44,96.28,12.44Z"/><path class="cls-5" d="M96.28,15.27C84,15.27,74.11,28.8,74.11,45.5S84,75.74,96.28,75.74,118.45,62.2,118.45,45.5,108.52,15.27,96.28,15.27Z"/><path class="cls-6" d="M96.28,16.93c-11.36,0-20.56,12.79-20.56,28.57s9.2,28.58,20.56,28.58,20.56-12.8,20.56-28.58S107.64,16.93,96.28,16.93Z"/><path class="cls-3" d="M92.3,79.72v3.13a1.94,1.94,0,0,0,0,.45.26.26,0,0,0,.13.16.6.6,0,0,0,.31.06h.09v.11h-2v-.11H91a1,1,0,0,0,.35,0,.31.31,0,0,0,.14-.16,2.06,2.06,0,0,0,0-.46v-2a1.29,1.29,0,0,0,0-.34.31.31,0,0,0-.09-.11.3.3,0,0,0-.16,0,.75.75,0,0,0-.35.1l0-.11,1.4-.64Z"/><path class="cls-3" d="M93.48,83.71v-.08a2.43,2.43,0,0,0,.8-.32,1.61,1.61,0,0,0,.52-.52,2.16,2.16,0,0,0,.26-.7,1.17,1.17,0,0,1-.3.12.69.69,0,0,1-.25,0,1,1,0,0,1-.73-.32,1.22,1.22,0,0,1-.29-.86,1.46,1.46,0,0,1,.16-.69,1.12,1.12,0,0,1,.45-.49,1.19,1.19,0,0,1,.6-.17,1.16,1.16,0,0,1,.64.19,1.37,1.37,0,0,1,.47.56,1.84,1.84,0,0,1,.18.83,2.52,2.52,0,0,1-.29,1.16,2.14,2.14,0,0,1-.86.88A2.81,2.81,0,0,1,93.48,83.71Zm1.62-1.86c0-.21,0-.4,0-.56a3.71,3.71,0,0,0-.12-1,.7.7,0,0,0-.2-.36.24.24,0,0,0-.18-.06.25.25,0,0,0-.22.12,1.33,1.33,0,0,0-.11.64,2.13,2.13,0,0,0,.19,1.08.38.38,0,0,0,.32.19A.67.67,0,0,0,95.1,81.85Z"/><path class="cls-3" d="M96.34,82.18l1.82-2.46h.34v2.46h.35v.59H98.5v.86h-.77v-.86H96.34Zm.28,0h1.11V80.67Z"/><path class="cls-3" d="M100,79.8h1.79l-.28.73H100l-.15.38a2.36,2.36,0,0,1,1.5.48,1.18,1.18,0,0,1,.44.92,1.27,1.27,0,0,1-.21.69,1.28,1.28,0,0,1-.56.52,1.66,1.66,0,0,1-.8.19,1.24,1.24,0,0,1-.72-.18.36.36,0,0,1-.17-.28.33.33,0,0,1,.09-.22.29.29,0,0,1,.21-.09.54.54,0,0,1,.22,0,2.44,2.44,0,0,1,.39.23,1.64,1.64,0,0,0,.3.17.6.6,0,0,0,.2,0,.54.54,0,0,0,.39-.17.56.56,0,0,0,.16-.41.91.91,0,0,0-.49-.8,2.33,2.33,0,0,0-1.26-.31h-.23Z"/><path class="cls-3" d="M74.1,70.79l-1-1.72.09-.06,0,.09a.65.65,0,0,0,.21.24.25.25,0,0,0,.17,0,1.14,1.14,0,0,0,.39-.19l1.66-1a2.05,2.05,0,0,0,.56-.43.68.68,0,0,0,.11-.38.86.86,0,0,0-.15-.45,1,1,0,0,0-.4-.39.91.91,0,0,0-.52-.07,2.31,2.31,0,0,0-.81.36L73,67.66a.81.81,0,0,0-.3.24.27.27,0,0,0-.06.2.72.72,0,0,0,.13.35l-.09.06L72,67.35l.09-.06,0,.07a.5.5,0,0,0,.21.2.35.35,0,0,0,.25,0,1.06,1.06,0,0,0,.31-.14l1.29-.79a3.57,3.57,0,0,1,.91-.44,1.08,1.08,0,0,1,.71.08,1.61,1.61,0,0,1,.73.68,1.79,1.79,0,0,1,.29.75,1.12,1.12,0,0,1-.13.7,1.76,1.76,0,0,1-.59.55l-1.66,1a1.57,1.57,0,0,0-.35.25.27.27,0,0,0,0,.18.81.81,0,0,0,.13.32Z"/><path class="cls-3" d="M71.25,65.78,72.66,63l-1.55.72a.88.88,0,0,0-.39.29.57.57,0,0,0,0,.5l-.1,0-.55-1.17.1,0a1,1,0,0,0,.22.27.31.31,0,0,0,.2,0,1.05,1.05,0,0,0,.38-.13l3-1.4,0,.09L72.19,66l2.28-1.06c.21-.1.33-.21.36-.34a.59.59,0,0,0,0-.37l0-.08.1-.05.58,1.26-.09,0c-.1-.2-.2-.32-.32-.36a.65.65,0,0,0-.46.08L72,66.31l-.07.12a.71.71,0,0,0-.09.29.67.67,0,0,0,.07.27l-.1.05Z"/><path class="cls-3" d="M72.92,59.76l.1,0,.72,1.92-.1,0,0-.12a.56.56,0,0,0-.16-.24.38.38,0,0,0-.17-.06,1.41,1.41,0,0,0-.36.1l-2.44.92a1.3,1.3,0,0,0-.35.16.3.3,0,0,0-.08.17.52.52,0,0,0,0,.26l0,.13L70,63l-.71-1.91.1,0,0,.12a.5.5,0,0,0,.16.23.29.29,0,0,0,.17.07,1.41,1.41,0,0,0,.36-.1l2.44-.92a1.74,1.74,0,0,0,.35-.16.38.38,0,0,0,.08-.17.55.55,0,0,0,0-.27Z"/><path class="cls-3" d="M68,56.88l.1,0a.65.65,0,0,0,.33.3,3.59,3.59,0,0,0,.76.15l3.29.45,0,.09L69.88,60a5.45,5.45,0,0,0-.56.5.46.46,0,0,0,0,.34l-.1,0-.53-1.81.1,0,0,.06a.66.66,0,0,0,.16.32.17.17,0,0,0,.14,0l.12-.06s.15-.11.32-.26l1.67-1.35-1.91-.25-.46-.05-.19,0a.3.3,0,0,0-.13.09.28.28,0,0,0-.06.16,1.05,1.05,0,0,0,0,.33l-.1,0Z"/><path class="cls-3" d="M67.9,55.08l1.59-.31,0-.08a.62.62,0,0,0-.34-.48,1.42,1.42,0,0,0-.72-.08l0-.11,2.05-.4,0,.11a1.68,1.68,0,0,0-.52.25.65.65,0,0,0-.24.31,1.1,1.1,0,0,0,0,.44l1.1-.22a1.65,1.65,0,0,0,.39-.1.25.25,0,0,0,.09-.13.32.32,0,0,0,0-.24l0-.23a1.43,1.43,0,0,0-.42-.82,1.41,1.41,0,0,0-.86-.31l0-.11,1.27-.07.65,3.33-.11,0,0-.13a.57.57,0,0,0-.12-.26.22.22,0,0,0-.16-.08,1.17,1.17,0,0,0-.36,0l-2.57.5a1.52,1.52,0,0,0-.32.08.24.24,0,0,0-.13.13.52.52,0,0,0,0,.31l0,.13-.11,0-.63-3.22,1.15-.22,0,.1a1.38,1.38,0,0,0-.56.35.83.83,0,0,0-.19.48,1.87,1.87,0,0,0,.06.6Z"/><path class="cls-3" d="M69.19,50.93l1.1-.11a1.37,1.37,0,0,0,.4-.09.31.31,0,0,0,.12-.15.83.83,0,0,0,0-.37h.11l.21,2H71a.91.91,0,0,0-.09-.36.43.43,0,0,0-.14-.13,2,2,0,0,0-.41,0L67.83,52a1.51,1.51,0,0,0-.4.08.4.4,0,0,0-.12.16.82.82,0,0,0,0,.37h-.11L67,50.81a4.08,4.08,0,0,1,0-1.05,1,1,0,0,1,.3-.57,1,1,0,0,1,.61-.28.93.93,0,0,1,.75.24,1.17,1.17,0,0,1,.33.52l1.24-1.08a1.83,1.83,0,0,0,.29-.29.42.42,0,0,0,.07-.29h.11l.13,1.23-1.66,1.45Zm-1.94.21L69,51l0-.17a1.75,1.75,0,0,0-.14-.59.59.59,0,0,0-.3-.28,1,1,0,0,0-.51-.06.9.9,0,0,0-.65.28.86.86,0,0,0-.14.69Z"/><path class="cls-3" d="M66.59,45.61l1.32-.07v.12a1.34,1.34,0,0,0-.79.43,1,1,0,0,0-.28.72.62.62,0,0,0,.17.46.47.47,0,0,0,.37.16.41.41,0,0,0,.23-.06,1,1,0,0,0,.27-.28,5.91,5.91,0,0,0,.32-.64,3,3,0,0,1,.62-1,1.08,1.08,0,0,1,.69-.25,1.14,1.14,0,0,1,.87.36,1.4,1.4,0,0,1,.39,1,2,2,0,0,1,0,.35,2.65,2.65,0,0,1-.13.41.49.49,0,0,0-.05.24.24.24,0,0,0,.06.15.35.35,0,0,0,.18.13V48l-1.49,0v-.1a1.72,1.72,0,0,0,1-.52,1.11,1.11,0,0,0,.31-.79.69.69,0,0,0-.19-.51A.52.52,0,0,0,70,45.9a.5.5,0,0,0-.27.08.89.89,0,0,0-.25.23,3.8,3.8,0,0,0-.29.54,4.88,4.88,0,0,1-.43.78,1.46,1.46,0,0,1-.41.38,1.21,1.21,0,0,1-.51.14,1.08,1.08,0,0,1-.81-.32,1.21,1.21,0,0,1-.36-.86,1.5,1.5,0,0,1,0-.37,1.76,1.76,0,0,1,.12-.34.81.81,0,0,0,.09-.27.17.17,0,0,0-.05-.12.51.51,0,0,0-.23-.07Z"/><path class="cls-3" d="M70.6,43h.11l-.06,2h-.11v-.13a.58.58,0,0,0-.06-.28.26.26,0,0,0-.13-.12,1.62,1.62,0,0,0-.37,0l-2.61-.07a1.35,1.35,0,0,0-.38,0,.27.27,0,0,0-.14.12.58.58,0,0,0-.07.26V45h-.11l.06-2.05h.11V43a.55.55,0,0,0,.06.28.26.26,0,0,0,.13.12,1.18,1.18,0,0,0,.37,0l2.61.07a1.59,1.59,0,0,0,.38,0,.29.29,0,0,0,.14-.13.48.48,0,0,0,.06-.26Z"/><path class="cls-3" d="M70.67,43h-.11l0-.13a.5.5,0,0,0,0-.26.4.4,0,0,0-.14-.15,1.52,1.52,0,0,0-.36-.06l-2.6-.24a1.17,1.17,0,0,0-.39,0,.24.24,0,0,0-.14.11.47.47,0,0,0-.08.26v.13h-.11l.16-1.75a2.63,2.63,0,0,1,.3-1.11,1.7,1.7,0,0,1,.78-.72,2.17,2.17,0,0,1,1.11-.17,2.08,2.08,0,0,1,.76.2,2,2,0,0,1,.55.4,1.74,1.74,0,0,1,.32.52,3,3,0,0,1,.15.69,2.88,2.88,0,0,1,0,.56Zm-3.59-1.83,3.09.29h.3a.13.13,0,0,0,.09-.07.53.53,0,0,0,.06-.22.84.84,0,0,0-.26-.76A2.29,2.29,0,0,0,69,39.92a2.63,2.63,0,0,0-1.24.12,1.07,1.07,0,0,0-.53.44A2,2,0,0,0,67.08,41.16Z"/><path class="cls-3" d="M70.36,36.43l-.25,1.36.35.23a.78.78,0,0,0,.3.14.29.29,0,0,0,.27-.08,1.18,1.18,0,0,0,.13-.37l.11,0L71,39l-.1,0a.67.67,0,0,0-.11-.37,2.53,2.53,0,0,0-.53-.44l-2.86-2v-.06l3.45-.8a1.94,1.94,0,0,0,.64-.22.44.44,0,0,0,.15-.25l.11,0-.34,1.86-.11,0v-.07a.6.6,0,0,0,0-.33.18.18,0,0,0-.12-.09.4.4,0,0,0-.11,0l-.24,0Zm-.23.06-1.45.32,1.23.84Z"/><path class="cls-3" d="M71.76,35l-.1,0,0-.13a.47.47,0,0,0,0-.26.27.27,0,0,0-.1-.17,1.52,1.52,0,0,0-.35-.13l-2.51-.71a1.36,1.36,0,0,0-.38-.07.26.26,0,0,0-.16.09.47.47,0,0,0-.13.23l0,.13-.11,0,.48-1.69a2.88,2.88,0,0,1,.49-1,1.65,1.65,0,0,1,.91-.56,2.14,2.14,0,0,1,1.12,0,2.34,2.34,0,0,1,.71.34,1.75,1.75,0,0,1,.69,1.06,3.23,3.23,0,0,1,0,.71,3,3,0,0,1-.12.54Zm-3.19-2.46,3,.85a.9.9,0,0,0,.29.05.16.16,0,0,0,.11-.05.53.53,0,0,0,.1-.2.86.86,0,0,0-.12-.8,2.25,2.25,0,0,0-1.25-.72,2.63,2.63,0,0,0-1.24-.1,1,1,0,0,0-.6.33A1.7,1.7,0,0,0,68.57,32.56Z"/><path class="cls-3" d="M71.1,24.73l1.26.55,0,.1a1.49,1.49,0,0,0-.95.11,1.21,1.21,0,0,0-.57.61,1.12,1.12,0,0,0-.07.7,1.24,1.24,0,0,0,.33.63,2.48,2.48,0,0,0,.83.56,3.22,3.22,0,0,0,1,.26,1.21,1.21,0,0,0,.77-.12,1.12,1.12,0,0,0,.5-.58,1.52,1.52,0,0,0,.11-.69A2.31,2.31,0,0,0,74,26l.32.14a2.21,2.21,0,0,1,.19.83,2.07,2.07,0,0,1-.19.83,2.47,2.47,0,0,1-.67.92,1.85,1.85,0,0,1-1,.4,2.12,2.12,0,0,1-1.91-.86,2.1,2.1,0,0,1-.24-2.12,2.31,2.31,0,0,1,.51-.73,2,2,0,0,0,.23-.27.28.28,0,0,0,0-.18c0-.06-.08-.11-.17-.17Z"/><path class="cls-3" d="M72.47,22.3a1.91,1.91,0,0,1,1.24-1.05,2,2,0,0,1,1.57.23,2.16,2.16,0,0,1,.93,1,1.93,1.93,0,0,1-.15,1.8,2,2,0,0,1-1.45,1.06,2.12,2.12,0,0,1-1.4-.28,2,2,0,0,1-1-1.25A1.88,1.88,0,0,1,72.47,22.3Zm.18.06a.88.88,0,0,0,.07,1,3,3,0,0,0,1,.86,2.65,2.65,0,0,0,1.48.44.79.79,0,0,0,.63-.43A.8.8,0,0,0,76,23.7a1.21,1.21,0,0,0-.32-.64,3.37,3.37,0,0,0-.86-.65A3.45,3.45,0,0,0,73.71,22,1.2,1.2,0,0,0,73,22,.87.87,0,0,0,72.65,22.36Z"/><path class="cls-3" d="M78.08,18.7l1,.95L77,22.44,77,22.38l.08-.1a.56.56,0,0,0,.11-.26.24.24,0,0,0,0-.18,1.32,1.32,0,0,0-.28-.24L74.73,20a1.41,1.41,0,0,0-.33-.2.24.24,0,0,0-.18,0A.48.48,0,0,0,74,20l-.08.1-.09-.06L75.1,18.4l.08.06-.1.14a.63.63,0,0,0-.11.26A.26.26,0,0,0,75,19a1.34,1.34,0,0,0,.28.24l2,1.51a1.09,1.09,0,0,0,.33.2.2.2,0,0,0,.18,0,1.57,1.57,0,0,0,.23-.27l.2-.26a1.27,1.27,0,0,0,.22-.48,1,1,0,0,0-.07-.5,2.6,2.6,0,0,0-.4-.65Z"/><path class="cls-3" d="M77.54,15.83,78.71,17l.05-.06a.6.6,0,0,0,.2-.55,1.5,1.5,0,0,0-.36-.64l.08-.08,1.5,1.43-.07.08a1.71,1.71,0,0,0-.5-.28.65.65,0,0,0-.39,0,.92.92,0,0,0-.35.26l.81.77a1.71,1.71,0,0,0,.31.26.26.26,0,0,0,.15,0,.59.59,0,0,0,.21-.15l.16-.17a1.39,1.39,0,0,0,.42-.81,1.42,1.42,0,0,0-.24-.89l.07-.08.79,1L79.22,19.5l-.08-.08.09-.09a.53.53,0,0,0,.15-.24.29.29,0,0,0,0-.18,1.28,1.28,0,0,0-.24-.28l-1.9-1.8a2.16,2.16,0,0,0-.25-.22.29.29,0,0,0-.18,0,.55.55,0,0,0-.27.16l-.09.1-.08-.08,2.26-2.38.85.81-.07.08a1.37,1.37,0,0,0-.61-.25.79.79,0,0,0-.5.12,2.42,2.42,0,0,0-.46.4Z"/><path class="cls-3" d="M82.31,11.2l.87,1.1-.09.07a1.8,1.8,0,0,0-1-.33,1.38,1.38,0,0,0-.85.28,1.15,1.15,0,0,0-.43.65,1.39,1.39,0,0,0,.11.81,3.81,3.81,0,0,0,.47.8,3.61,3.61,0,0,0,.72.7,1.2,1.2,0,0,0,.73.24,1.26,1.26,0,0,0,.68-.28,1.94,1.94,0,0,0,.21-.2,2.4,2.4,0,0,0,.18-.26l-.51-.65a.73.73,0,0,0-.21-.22.32.32,0,0,0-.18,0,.57.57,0,0,0-.22.11l-.08.06L82.65,14l1.5-1.18.07.09a.74.74,0,0,0-.2.23.27.27,0,0,0,0,.2,1,1,0,0,0,.14.23l.51.65a3.82,3.82,0,0,1-.45.68,4.26,4.26,0,0,1-.61.59,2.45,2.45,0,0,1-.83.45A2.22,2.22,0,0,1,82,16a1.85,1.85,0,0,1-.7-.17,1.89,1.89,0,0,1-.71-.59,2,2,0,0,1-.45-1.57A2.15,2.15,0,0,1,81,12.22a2.55,2.55,0,0,1,.44-.29,2.72,2.72,0,0,1,.41-.15l.33-.12a.22.22,0,0,0,.08-.14.56.56,0,0,0,0-.26Z"/><path class="cls-3" d="M86.83,13.11l0,.1-1.76,1-.06-.1.12-.06a.61.61,0,0,0,.2-.19.27.27,0,0,0,0-.18,1.42,1.42,0,0,0-.16-.34l-1.33-2.25a1.11,1.11,0,0,0-.22-.31.3.3,0,0,0-.18-.05.56.56,0,0,0-.25.08l-.11.07-.06-.09,1.77-1,0,.09-.11.07a.41.41,0,0,0-.2.19.34.34,0,0,0,0,.18,1.43,1.43,0,0,0,.16.33l1.33,2.25a1.16,1.16,0,0,0,.22.31.27.27,0,0,0,.18,0,.48.48,0,0,0,.26-.08Z"/><path class="cls-3" d="M87.26,8.61a1.92,1.92,0,0,1,1.62-.06A2,2,0,0,1,90,9.69a2.15,2.15,0,0,1,.1,1.39,2,2,0,0,1-1.22,1.33,2,2,0,0,1-1.79-.05,2.11,2.11,0,0,1-.94-1.09,2,2,0,0,1,0-1.59A1.86,1.86,0,0,1,87.26,8.61Zm.1.16a.91.91,0,0,0-.55.83,3.21,3.21,0,0,0,.29,1.3,2.64,2.64,0,0,0,.9,1.26.82.82,0,0,0,.76.05.86.86,0,0,0,.41-.33,1.24,1.24,0,0,0,.14-.7,3.44,3.44,0,0,0-.28-1,3.55,3.55,0,0,0-.58-1,1.09,1.09,0,0,0-.55-.37A.84.84,0,0,0,87.36,8.77Z"/><path class="cls-3" d="M94.42,9.57l.81-2.71,1.59-.15v.11h-.12a.48.48,0,0,0-.27.09.3.3,0,0,0-.11.15,1.52,1.52,0,0,0,0,.36L96.58,10a1.94,1.94,0,0,0,.06.38.31.31,0,0,0,.15.12.53.53,0,0,0,.26,0h.13v.11l-2,.19v-.11h.13a.51.51,0,0,0,.27-.09.24.24,0,0,0,.1-.15,1,1,0,0,0,0-.37L95.37,7.2l-1.16,3.74h-.07L92.28,7.51l.26,2.79a3.31,3.31,0,0,0,0,.35.43.43,0,0,0,.19.23.67.67,0,0,0,.4,0V11l-1.34.12v-.1h0a.61.61,0,0,0,.24-.06.56.56,0,0,0,.16-.14.81.81,0,0,0,.07-.22s0-.12,0-.3l-.23-2.5A1.65,1.65,0,0,0,92,7.46a.33.33,0,0,0-.14-.12.58.58,0,0,0-.27,0h-.13V7.21l1.6-.15Z"/><path class="cls-3" d="M99.46,9.94l-1.38-.19-.21.36a1.09,1.09,0,0,0-.13.31.28.28,0,0,0,.1.26,1,1,0,0,0,.37.12v.11l-1.29-.18v-.11a.54.54,0,0,0,.37-.13A2.25,2.25,0,0,0,97.7,10L99.53,7h0l1,3.42a1.84,1.84,0,0,0,.25.62.39.39,0,0,0,.26.14l0,.11L99.15,11l0-.11h.07a.56.56,0,0,0,.33,0,.14.14,0,0,0,.08-.12.21.21,0,0,0,0-.11,1.49,1.49,0,0,0-.06-.23Zm-.07-.23L99,8.28l-.78,1.27Z"/><path class="cls-3" d="M105.43,8.6l0,.11a.56.56,0,0,0-.32,0,3.19,3.19,0,0,0-.64.5l-1.24,1.12-.3.91a1.17,1.17,0,0,0-.08.38.24.24,0,0,0,.08.16.51.51,0,0,0,.22.13l.21.07,0,.1-2.1-.67,0-.1.2.06a.47.47,0,0,0,.28,0,.31.31,0,0,0,.16-.1A1.4,1.4,0,0,0,102,11l.24-.76-.36-1.9a3.05,3.05,0,0,0-.19-.69.54.54,0,0,0-.26-.17l0-.11,1.79.57,0,.1-.08,0a.62.62,0,0,0-.25,0,.15.15,0,0,0-.09.08,1.89,1.89,0,0,0,.06.58l.27,1.47,1-.93a1.52,1.52,0,0,0,.43-.48.17.17,0,0,0,0-.14.8.8,0,0,0-.32-.2l0-.1Z"/><path class="cls-3" d="M107.87,9.8A1.94,1.94,0,0,1,108.94,11a2,2,0,0,1-.19,1.57,2.16,2.16,0,0,1-1,1,1.93,1.93,0,0,1-1.8-.12A2,2,0,0,1,104.84,12a2.14,2.14,0,0,1,.25-1.41,2,2,0,0,1,1.23-1A1.85,1.85,0,0,1,107.87,9.8Zm-.06.18a.89.89,0,0,0-1,.1,3,3,0,0,0-.82,1,2.55,2.55,0,0,0-.41,1.49.8.8,0,0,0,.44.63.88.88,0,0,0,.51.11,1.16,1.16,0,0,0,.63-.34,3.21,3.21,0,0,0,.64-.87,3.72,3.72,0,0,0,.44-1.11,1.15,1.15,0,0,0-.06-.66A1,1,0,0,0,107.81,10Z"/><path class="cls-3" d="M110,13.82l-.69.88a1.55,1.55,0,0,0-.22.34.33.33,0,0,0,0,.19,1.07,1.07,0,0,0,.25.27l-.06.08-1.58-1.25.07-.08a1.07,1.07,0,0,0,.32.19.39.39,0,0,0,.19,0,1.27,1.27,0,0,0,.28-.29l1.6-2a1,1,0,0,0,.22-.35.26.26,0,0,0,0-.19,1,1,0,0,0-.26-.26l.07-.09,1.43,1.13a4,4,0,0,1,.75.73,1,1,0,0,1,.19.62,1,1,0,0,1-.92,1,1.19,1.19,0,0,1-.6-.14L111,16.2a2.73,2.73,0,0,0,0,.42.51.51,0,0,0,.16.25l-.07.08-1-.76.14-2.21Zm1.21-1.52-1.08,1.36.13.1a1.77,1.77,0,0,0,.52.32.58.58,0,0,0,.41,0,1,1,0,0,0,.41-.32.93.93,0,0,0,.25-.66.91.91,0,0,0-.39-.59Z"/><path class="cls-3" d="M111.77,17.67l.08-.07.09.1a.52.52,0,0,0,.21.17.34.34,0,0,0,.2,0,1.59,1.59,0,0,0,.3-.22l2-1.7a1.1,1.1,0,0,0,.26-.28.21.21,0,0,0,0-.18.54.54,0,0,0-.12-.24l-.09-.09.08-.07,1.15,1.33a2.83,2.83,0,0,1,.59,1,1.7,1.7,0,0,1,0,1.07,2.05,2.05,0,0,1-.65.91,1.87,1.87,0,0,1-.67.4,1.67,1.67,0,0,1-.67.12,1.53,1.53,0,0,1-.59-.13,2.42,2.42,0,0,1-.61-.37,2.53,2.53,0,0,1-.38-.4Zm3.82-1.3-2.35,2a.87.87,0,0,0-.22.21.14.14,0,0,0,0,.11.45.45,0,0,0,.11.2.89.89,0,0,0,.74.35,2.32,2.32,0,0,0,1.28-.65,2.74,2.74,0,0,0,.78-1,1.08,1.08,0,0,0,0-.68A1.85,1.85,0,0,0,115.59,16.37Z"/><path class="cls-3" d="M118.33,19.9l-1.34.9,0,.06a.62.62,0,0,0,.5.32,1.6,1.6,0,0,0,.7-.21l.06.09-1.73,1.15-.06-.09a1.47,1.47,0,0,0,.38-.43.63.63,0,0,0,.1-.37.9.9,0,0,0-.18-.4l-.93.62a1.64,1.64,0,0,0-.32.25.33.33,0,0,0,0,.15.69.69,0,0,0,.1.23l.13.19a1.38,1.38,0,0,0,.7.59,1.47,1.47,0,0,0,.92,0l.06.09-1.15.55-1.88-2.81.09-.07.07.11a.54.54,0,0,0,.2.2.39.39,0,0,0,.19,0,1.44,1.44,0,0,0,.32-.18l2.17-1.45a2.25,2.25,0,0,0,.27-.2.29.29,0,0,0,.07-.18.44.44,0,0,0-.1-.29l-.07-.11.09-.06,1.82,2.73-1,.65-.06-.09a1.63,1.63,0,0,0,.38-.54.89.89,0,0,0,0-.51,2,2,0,0,0-.3-.53Z"/><path class="cls-3" d="M122.4,26.66l-1.24.59,0-.1a1.53,1.53,0,0,0,.55-.79,1.24,1.24,0,0,0-.08-.83,1.23,1.23,0,0,0-.49-.52,1.2,1.2,0,0,0-.69-.16,2.56,2.56,0,0,0-1,.26,3.51,3.51,0,0,0-.82.53,1.42,1.42,0,0,0-.42.66,1.23,1.23,0,0,0,.11.76,1.4,1.4,0,0,0,.44.54,2.43,2.43,0,0,0,.79.35l-.31.15a2.24,2.24,0,0,1-.75-.41A2.27,2.27,0,0,1,118,27a2.43,2.43,0,0,1-.25-1.12,1.81,1.81,0,0,1,.34-1,2.13,2.13,0,0,1,.81-.68A2.16,2.16,0,0,1,120,24a2.06,2.06,0,0,1,1,.38,2.14,2.14,0,0,1,.71.84,2.27,2.27,0,0,1,.21.86,1.22,1.22,0,0,0,0,.35.22.22,0,0,0,.13.12.42.42,0,0,0,.24,0Z"/><path class="cls-3" d="M122.56,27.25l.68,1.91-.1,0,0-.1a.77.77,0,0,0-.15-.28.33.33,0,0,0-.16-.07,2,2,0,0,0-.42.11l-1.83.65a2.06,2.06,0,0,0-.64.31.69.69,0,0,0-.18.35.88.88,0,0,0,0,.47,1,1,0,0,0,.31.46.86.86,0,0,0,.49.18,2.56,2.56,0,0,0,.88-.19l1.52-.54a.93.93,0,0,0,.34-.18.34.34,0,0,0,.11-.19.89.89,0,0,0-.06-.36l.1,0,.45,1.28-.1,0,0-.07a.49.49,0,0,0-.15-.24.41.41,0,0,0-.25-.08,1,1,0,0,0-.33.08l-1.42.5a3.64,3.64,0,0,1-1,.25,1.07,1.07,0,0,1-.68-.22,1.55,1.55,0,0,1-.57-.82,1.83,1.83,0,0,1-.14-.79,1.24,1.24,0,0,1,.28-.67,1.73,1.73,0,0,1,.69-.41l1.83-.65a1.18,1.18,0,0,0,.39-.18.27.27,0,0,0,.08-.16.77.77,0,0,0-.07-.34Z"/><path class="cls-3" d="M124.34,32.71l-1.92,2.47,1.65-.41a.85.85,0,0,0,.45-.22.53.53,0,0,0,0-.49l.11,0,.31,1.25-.1,0a1.18,1.18,0,0,0-.16-.31.37.37,0,0,0-.2-.08.88.88,0,0,0-.39,0l-3.21.8,0-.1,2.57-3.37-2.45.61a.54.54,0,0,0-.41.26.59.59,0,0,0,0,.37l0,.09-.1,0-.34-1.35.1,0a.68.68,0,0,0,.24.41.67.67,0,0,0,.47,0l2.72-.67.08-.11a.92.92,0,0,0,.15-.26.68.68,0,0,0,0-.28l.1,0Z"/><path class="cls-3" d="M121.13,36.23l.1,0,0,.13a.48.48,0,0,0,.1.25.29.29,0,0,0,.16.11,1.5,1.5,0,0,0,.37,0l2.58-.4a1.36,1.36,0,0,0,.38-.09A.27.27,0,0,0,125,36a.74.74,0,0,0,0-.27l0-.13.1,0,.27,1.74a2.89,2.89,0,0,1,0,1.15,1.69,1.69,0,0,1-.59.89,2.12,2.12,0,0,1-1,.43,2.32,2.32,0,0,1-.79,0,1.83,1.83,0,0,1-.62-.25,1.64,1.64,0,0,1-.44-.43,2.64,2.64,0,0,1-.32-.63,3.71,3.71,0,0,1-.12-.55Zm3.92.91-3.06.47a1.58,1.58,0,0,0-.29.06.17.17,0,0,0-.07.1.42.42,0,0,0,0,.23.85.85,0,0,0,.44.67,2.22,2.22,0,0,0,1.44.13,2.52,2.52,0,0,0,1.17-.42,1,1,0,0,0,.4-.55A1.63,1.63,0,0,0,125.05,37.14Z"/><path class="cls-3" d="M122,42.32h-.11l-.17-2h.1v.13a.54.54,0,0,0,.09.27.24.24,0,0,0,.15.1,1,1,0,0,0,.37,0l2.6-.22a1.37,1.37,0,0,0,.38-.06.28.28,0,0,0,.12-.14.7.7,0,0,0,0-.27l0-.12h.11l.18,2h-.11v-.13a.48.48,0,0,0-.09-.27.3.3,0,0,0-.15-.11h-.37l-2.6.22a1.25,1.25,0,0,0-.38.07.24.24,0,0,0-.12.14.52.52,0,0,0,0,.26Z"/><path class="cls-3" d="M125.92,43.66l-2.43,2,1.71,0a.76.76,0,0,0,.48-.11.55.55,0,0,0,.15-.47h.11l0,1.3h-.11a1.16,1.16,0,0,0-.09-.33.33.33,0,0,0-.17-.13.87.87,0,0,0-.4,0l-3.3.05v-.09l3.26-2.71-2.52,0a.49.49,0,0,0-.58.52v.09H122l0-1.39H122a.49.49,0,0,0,.6.57l2.8,0,.1-.09a.63.63,0,0,0,.2-.22.61.61,0,0,0,.06-.28h.1Z"/><path class="cls-3" d="M123,48.83l.09-1.38-.37-.19a.82.82,0,0,0-.32-.1.26.26,0,0,0-.25.11,1,1,0,0,0-.1.38h-.11l.09-1.31h.11a.58.58,0,0,0,.15.36,2.32,2.32,0,0,0,.58.37l3.06,1.62v0l-3.35,1.19a2.27,2.27,0,0,0-.6.3.43.43,0,0,0-.12.27h-.11l.13-1.89H122v.08a.62.62,0,0,0,0,.33.19.19,0,0,0,.13.07h.11l.23-.07Zm.22-.08,1.4-.49-1.32-.69Z"/><path class="cls-3" d="M122.63,53.32l2.4,1.5-.27,1.57-.11,0,0-.12a.55.55,0,0,0,0-.29.31.31,0,0,0-.12-.14,1.07,1.07,0,0,0-.35-.09l-2.58-.45a1.58,1.58,0,0,0-.38,0,.31.31,0,0,0-.16.1.72.72,0,0,0-.1.25l0,.13-.11,0,.35-2,.11,0,0,.13a.51.51,0,0,0,0,.28.31.31,0,0,0,.12.14,1.08,1.08,0,0,0,.36.09l2.9.51-3.31-2.1v-.07l3.8-.89-2.75-.48-.36,0a.42.42,0,0,0-.26.12.67.67,0,0,0-.16.38l-.11,0,.23-1.32h.11v.05a.49.49,0,0,0,0,.24.48.48,0,0,0,.09.19.43.43,0,0,0,.2.12l.29.06,2.47.43a1.17,1.17,0,0,0,.38,0,.33.33,0,0,0,.15-.1.44.44,0,0,0,.1-.25l0-.13.11,0-.27,1.58Z"/><path class="cls-3" d="M121.26,58.23l.38-1.34-.32-.26a1,1,0,0,0-.29-.17.26.26,0,0,0-.27.06,1.21,1.21,0,0,0-.17.35l-.11,0,.36-1.25.11,0A.55.55,0,0,0,121,56a2.3,2.3,0,0,0,.48.49l2.66,2.22v0l-3.52.47a1.9,1.9,0,0,0-.65.15.45.45,0,0,0-.18.24l-.11,0,.53-1.82.1,0,0,.07a.68.68,0,0,0,0,.33.18.18,0,0,0,.12.1h.1l.24,0Zm.24,0L123,58l-1.15-1Z"/><path class="cls-3" d="M120.86,61.54l-1-.41a1.72,1.72,0,0,0-.39-.11.36.36,0,0,0-.18.08,1,1,0,0,0-.18.32l-.1,0,.74-1.86.1,0a.82.82,0,0,0-.09.36.29.29,0,0,0,.07.17,1.29,1.29,0,0,0,.37.19l2.39.95a1,1,0,0,0,.39.11.27.27,0,0,0,.18-.07,1.13,1.13,0,0,0,.18-.33l.1,0-.67,1.7a4.24,4.24,0,0,1-.48.93,1,1,0,0,1-1.2.32.94.94,0,0,1-.56-.56,1.34,1.34,0,0,1,0-.62l-1.59.39a2.26,2.26,0,0,0-.4.12.48.48,0,0,0-.2.22l-.1,0,.46-1.15,2.15-.51Zm1.81.72-1.62-.64-.06.15a1.74,1.74,0,0,0-.15.59.63.63,0,0,0,.13.39,1.07,1.07,0,0,0,.44.3.92.92,0,0,0,.7.05,1,1,0,0,0,.45-.55Z"/><path class="cls-3" d="M120.05,68.54l-1.22-.64.06-.1a1.45,1.45,0,0,0,1,0,1.21,1.21,0,0,0,.62-.56,1.17,1.17,0,0,0,.12-.69,1.24,1.24,0,0,0-.29-.66,2.43,2.43,0,0,0-.78-.62,3.3,3.3,0,0,0-.92-.33,1.26,1.26,0,0,0-.78.06,1.17,1.17,0,0,0-.54.54,1.4,1.4,0,0,0-.17.68,2.19,2.19,0,0,0,.2.84l-.31-.16a2.41,2.41,0,0,1-.13-.85,2.34,2.34,0,0,1,.25-.81,2.26,2.26,0,0,1,.75-.86,1.78,1.78,0,0,1,1-.33,2,2,0,0,1,1,.24,2.2,2.2,0,0,1,.82.76,2.17,2.17,0,0,1,.33,1.07,2.09,2.09,0,0,1-.25,1.07,2.5,2.5,0,0,1-.56.69.9.9,0,0,0-.25.25.2.2,0,0,0,0,.17.4.4,0,0,0,.15.18Z"/><path class="cls-3" d="M116,69.37l.78-1.14-.23-.36a.87.87,0,0,0-.21-.24.25.25,0,0,0-.28,0,1,1,0,0,0-.28.27l-.09-.06.74-1.07.09.06a.57.57,0,0,0,0,.38,2.5,2.5,0,0,0,.3.62l1.83,2.94,0,.05-3.49-.67a1.93,1.93,0,0,0-.67-.05.45.45,0,0,0-.24.17l-.09-.06,1.07-1.57.09.06,0,.07a.53.53,0,0,0-.13.3.19.19,0,0,0,.07.13l.1,0,.23.05Zm.23,0,1.46.29-.79-1.27Z"/><polygon class="cls-7" points="62.07 78.24 61.97 78.22 61.87 78.21 61.77 78.21 61.66 78.22 61.56 78.22 61.45 78.24 61.35 78.27 61.26 78.3 61.16 78.33 61.07 78.38 60.98 78.42 60.9 78.48 60.82 78.53 60.75 78.6 60.68 78.66 60.62 78.74 60.58 78.81 60.53 78.9 60.5 78.98 60.47 79.08 60.45 79.17 60.44 79.28 60.44 79.38 60.44 79.48 60.46 79.58 60.48 79.69 60.52 79.79 60.56 79.89 60.61 79.99 60.68 80.09 60.76 80.19 60.84 80.28 61.16 80.54 61.46 80.8 61.75 81.05 62.02 81.3 62.27 81.54 62.51 81.77 62.73 82 62.94 82.23 63.14 82.45 63.33 82.67 63.5 82.88 63.67 83.08 63.83 83.29 63.97 83.49 64.11 83.69 64.24 83.88 64.49 84.27 64.71 84.64 64.92 85 65.13 85.37 65.33 85.72 65.52 86.07 65.73 86.43 65.96 86.78 66.68 84.45 66.37 84.07 66.09 83.72 65.84 83.4 65.6 83.1 65.38 82.82 65.18 82.55 64.98 82.29 64.79 82.04 64.61 81.78 64.41 81.52 64.22 81.25 64.02 80.97 63.81 80.68 63.58 80.35 63.32 80 63.06 79.63 62.94 79.47 62.83 79.29 62.7 79.11 62.57 78.93 62.44 78.74 62.32 78.56 62.19 78.39 62.07 78.24 62.07 78.24"/><path class="cls-2" d="M66,87l-.35-.56-.41-.71-.61-1.08-.22-.37L64,83.74l-.28-.39-.5-.62-.59-.66-.46-.46-.52-.49-.9-.76-.17-.2-.08-.11-.1-.22,0-.11-.05-.22v-.33l0-.11.07-.2.1-.17.07-.09.14-.14.18-.13.19-.09.21-.07.21,0h.34l.27,0L65.69,83l1.11,1.39Zm-4.13-8.73-.3,0-.27.07-.09,0-.17.08-.15.11-.12.11,0,.07-.08.14-.06.17v.08l0,.19v.09l0,.2.12.28.14.17.08.09.89.76.53.49.46.47.6.67.51.63.28.4.38.59.23.37,1.11,1.93.64-2-1-1.31-1.19-1.59L62,78.33Z"/><polygon class="cls-7" points="130.82 78.41 130.95 78.39 131.07 78.38 131.19 78.38 131.3 78.39 131.41 78.4 131.5 78.42 131.6 78.46 131.69 78.5 131.77 78.56 131.84 78.62 131.87 78.65 131.91 78.69 131.94 78.73 131.96 78.78 131.99 78.82 132.01 78.87 132.03 78.93 132.05 78.99 132.08 79.11 132.1 79.24 132.12 79.37 132.12 79.48 132.12 79.59 132.1 79.69 132.08 79.78 132.05 79.87 132.02 79.95 131.98 80.03 131.88 80.18 131.78 80.33 131.68 80.47 131.57 80.62 131.19 81 130.83 81.37 130.47 81.73 130.11 82.09 129.78 82.45 129.44 82.8 129.12 83.17 128.8 83.54 128.49 83.91 128.18 84.3 128.03 84.5 127.89 84.71 127.74 84.91 127.6 85.12 127.45 85.33 127.3 85.56 127.16 85.78 127.02 86.01 126.88 86.24 126.74 86.48 126.61 86.73 126.47 86.98 125.81 84.48 126.1 84.16 126.4 83.83 126.7 83.5 126.98 83.16 127.27 82.82 127.55 82.47 127.82 82.13 128.09 81.79 128.35 81.45 128.6 81.12 128.85 80.8 129.09 80.48 129.32 80.18 129.54 79.89 129.75 79.62 129.96 79.36 130.17 79.1 130.38 78.86 130.49 78.74 130.6 78.62 130.71 78.51 130.82 78.41 130.82 78.41"/><path class="cls-2" d="M126.56,87l-.2,0-.68-2.55.64-.7.86-1,2.69-3.46.64-.74.26-.24.16,0h.26l.23,0,.22.06.1,0,.09.06.16.15.12.21.08.25,0,.28v.12l0,.22,0,.1-.11.28-.2.3-.12.15-.09.14-1.48,1.49-.66.71-.64.74-.32.37-.3.38-.73,1-.42.67-.28.47Zm-.64-2.52.58,2.18.43-.74.43-.67.28-.43.76-1,.63-.75.33-.36,1-1.08,1.12-1.11.08-.14.22-.29.09-.14.09-.23,0-.17v-.1l0-.23v-.13l-.09-.25-.13-.18-.06-.06-.07,0-.08,0-.17,0h-.5l-.42.43-.42.49-2.68,3.46-.87,1Z"/><polygon class="cls-8" points="127.83 77.18 127.69 77.06 127.54 76.94 127.41 76.85 127.28 76.76 127.14 76.68 127.01 76.61 126.89 76.55 126.77 76.5 126.64 76.47 126.53 76.43 126.42 76.42 126.31 76.4 126.2 76.4 126.09 76.4 125.99 76.42 125.89 76.44 125.78 76.47 125.68 76.5 125.59 76.54 125.5 76.59 125.4 76.65 125.31 76.71 125.22 76.77 125.13 76.85 125.05 76.93 124.96 77.02 124.88 77.11 124.8 77.21 124.72 77.31 124.64 77.41 124.56 77.52 124.48 77.63 123.79 78.56 123.08 79.46 122.36 80.34 121.63 81.19 120.89 82 120.14 82.8 119.37 83.56 118.59 84.3 117.8 85 117 85.69 116.18 86.33 115.36 86.96 114.52 87.55 113.68 88.11 112.81 88.65 111.94 89.16 111.06 89.64 110.16 90.08 109.26 90.51 108.35 90.9 107.42 91.26 106.48 91.59 105.53 91.89 104.56 92.17 103.6 92.41 102.61 92.62 101.62 92.8 100.62 92.96 99.6 93.08 98.58 93.17 97.54 93.23 96.49 93.25 95.22 93.22 93.97 93.14 92.77 93.03 91.6 92.89 90.45 92.7 89.35 92.49 88.27 92.25 87.22 91.97 86.2 91.66 85.2 91.33 84.23 90.97 83.29 90.57 82.37 90.15 81.47 89.69 80.6 89.22 79.74 88.72 78.92 88.19 78.1 87.63 77.3 87.06 76.52 86.46 75.76 85.84 75.01 85.19 74.27 84.53 73.55 83.84 72.84 83.14 72.14 82.41 71.46 81.67 70.77 80.91 70.1 80.13 69.44 79.34 68.78 78.53 68.12 77.71 67.94 77.44 67.74 77.15 67.64 77 67.53 76.85 67.42 76.7 67.31 76.55 67.18 76.42 67.07 76.29 66.95 76.18 66.83 76.08 66.76 76.04 66.7 76 66.64 75.97 66.57 75.95 66.51 75.92 66.44 75.91 66.38 75.89 66.32 75.89 66.17 75.9 66.04 75.91 65.94 75.94 65.84 75.96 65.75 76 65.67 76.05 65.6 76.1 65.53 76.16 65.39 76.31 65.22 76.5 65.11 76.61 65 76.74 64.87 76.87 64.72 77.02 64.52 77.18 64.33 77.32 64.16 77.44 64 77.54 63.84 77.63 63.68 77.71 63.54 77.78 63.39 77.83 63.24 77.89 63.1 77.93 62.94 77.97 62.79 78.01 62.47 78.11 62.1 78.22 62.22 78.38 62.35 78.56 62.47 78.73 62.59 78.92 62.71 79.11 62.82 79.28 62.93 79.44 63.02 79.59 63.77 80.67 64.54 81.71 65.34 82.73 66.17 83.72 67.02 84.68 67.9 85.61 68.8 86.52 69.72 87.39 70.66 88.24 71.63 89.05 72.61 89.84 73.62 90.59 74.64 91.31 75.68 92 76.73 92.66 77.81 93.28 78.89 93.87 79.99 94.42 81.11 94.94 82.24 95.43 83.37 95.88 84.53 96.29 85.69 96.67 86.85 97 88.03 97.3 89.21 97.56 90.41 97.79 91.6 97.98 92.81 98.12 94.01 98.23 95.22 98.29 96.44 98.32 97.73 98.32 99.01 98.27 100.28 98.18 101.52 98.04 102.76 97.86 103.97 97.63 105.17 97.35 106.34 97.05 107.51 96.7 108.65 96.31 109.78 95.88 110.89 95.42 111.97 94.93 113.05 94.4 114.09 93.85 115.12 93.26 116.14 92.64 117.13 92.01 118.09 91.34 119.05 90.65 119.97 89.93 120.89 89.2 121.77 88.44 122.63 87.67 123.48 86.88 124.31 86.07 125.1 85.25 125.88 84.41 126.63 83.56 127.36 82.71 128.07 81.84 128.75 80.97 129.04 80.58 129.31 80.21 129.57 79.86 129.81 79.52 130.06 79.21 130.29 78.92 130.41 78.78 130.53 78.64 130.65 78.52 130.78 78.4 130.36 78.32 129.95 78.23 129.76 78.18 129.56 78.13 129.36 78.07 129.17 78 128.99 77.93 128.8 77.85 128.63 77.77 128.46 77.67 128.29 77.57 128.13 77.45 128.06 77.38 127.98 77.32 127.9 77.25 127.83 77.18 127.83 77.18"/><path class="cls-2" d="M97.73,98.42H96.44l-1.22,0L94,98.33l-1.21-.11-1.21-.14-1.2-.18-1.2-.23L88,97.41l-1.18-.31-1.18-.34-1.16-.37L83.33,96l-1.13-.46L81.06,95,80,94.51,78.84,94l-1.09-.59-1.07-.62-1.06-.66-1-.69-1-.73-1-.75-1-.79-1-.81-1-.85-.92-.88-.9-.91-.88-.93-.85-1-.83-1-.81-1-.77-1-1.07-1.57-.35-.55-.33-.44.83-.26.45-.12.29-.11.28-.14.16-.09.33-.21.18-.14.19-.16.28-.27.52-.58.08-.07.17-.11.1,0,.23-.06.36,0,.15,0,.22.09.14.09.13.1.13.12.24.27.34.45.48.71,1.31,1.62.67.8.67.77.68.76.69.74.7.73.7.7.72.68.74.67.74.64.77.62.77.59.8.58.81.56.82.52.86.5.87.47.89.46.92.41.94.4,1,.36,1,.34,1,.3,1,.28,1.07.24,1.11.21,1.14.18,1.16.15L94,93l1.25.07,1.27,0,1,0,1-.06,1-.09,1-.12,1-.15,1-.18,1-.22,1-.24,1-.27.94-.29.94-.34.92-.36.91-.38.9-.43.9-.44.88-.48.87-.51.86-.53.84-.56.84-.59.81-.63.82-.64.8-.69.79-.7.77-.73.76-.76.76-.8.74-.81.73-.85.71-.87.71-.9L124.88,77l.27-.25.38-.25.21-.08.22-.06h.35l.24,0,.25.07.26.11.27.16.28.19.29.24.3.27.16.12.33.19.34.16.37.14.58.15.41.09.61.11-.39.38-.23.27-.48.61L128.84,81l-.69.88-.7.87-.73.86-.76.85-.78.84-.79.82-.83.81-.85.8-.86.77-.89.76-.91.73-.94.72-1,.69-1,.67-1,.64-1,.62-1,.59-1.05.55L112,95l-1.09.5-1.11.46-1.13.42-1.14.39-1.17.35-1.19.32-1.19.27-1.22.23-1.24.18-1.25.14-1.27.1ZM62.28,78.27l.16.23.67,1,.75,1.07.77,1,.8,1,.83,1,.84,1,.88.93.9.91.91.87.94.85,1,.8,1,.79,1,.75,1,.72,1,.68,1.06.66,1.06.62,1.08.59,1.1.55,1.12.52,1.12.48,1.13.45,1.15.41,1.16.38,1.17.33,1.17.3,1.18.26,1.19.23,1.19.18,1.2.15,1.2.11,1.2.06,1.22,0h1.29l1.28,0,1.26-.09,1.24-.14,1.23-.19,1.21-.22,1.19-.28,1.17-.31,1.17-.34,1.14-.39,1.12-.42,1.1-.46,1.09-.5,1.06-.52,1.05-.55,1-.59,1-.61,1-.64,1-.66,1-.69.93-.72.91-.73.88-.75.86-.78.85-.79.82-.8.79-.82.78-.84.75-.84.72-.86.71-.86.69-.88,1.3-1.75.47-.57.11-.12-.21,0-.81-.19-.2-.06-.39-.14-.36-.17-.35-.2-.41-.33-.2-.19-.28-.21-.26-.16L127,76.7l-.24-.1-.22-.07-.21,0h-.2l-.28.07-.18.07-.34.22-.25.23-.32.38-.14.22-.7.93-.71.9-.72.88-.73.85-.75.82-.75.8-.77.77-.78.73-.79.71-.81.68-.82.65-.82.63-.84.59-.85.57-.86.54-.88.51-.88.48-.91.45-.9.42-.92.39-.93.36-.94.34-1,.3-1,.27-1,.25-1,.21-1,.19-1,.15-1,.12-1,.09-1,.06-1,0-1.28,0L94,93.24l-1.21-.1L91.58,93l-1.14-.18-1.12-.22-1.08-.24-1-.28-1-.31-1-.33-1-.37-1-.4-.92-.42-.9-.46-.87-.47-.86-.51-.83-.52L78,87.72l-.8-.58-.78-.6-.77-.62-.75-.65-.74-.67-.72-.68-.71-.71-.71-.73-.69-.74L70.69,81,70,80.2l-.67-.8L68,77.77l-.7-1-.11-.14L67,76.36l-.12-.11-.23-.16L66.46,76l-.1,0-.31,0-.18,0-.14.07-.07.05-.06.06-.65.7-.16.15-.2.17-.19.14-.34.23-.47.24-.31.11Z"/><path class="cls-9" d="M71.62,87.94l1.8-2L75,87.22l-.31.35-1.11-1-.4.45,1,.91-.3.34-1-.9-.49.56,1.15,1-.3.35-1.57-1.38Zm2.44-1.71.56-.25.45.39-.76.09-.25-.23Z"/><polygon class="cls-9" points="74.08 89.92 75.4 88.07 74.73 87.6 75 87.22 76.78 88.48 76.51 88.85 75.85 88.39 74.53 90.24 74.08 89.92 74.08 89.92"/><polygon class="cls-9" points="75.48 90.9 77.06 88.67 77.52 88.99 75.93 91.22 75.48 90.9 75.48 90.9"/><polygon class="cls-9" points="78.44 91.56 78.8 91.98 78.71 92.06 78.63 92.12 78.54 92.18 78.45 92.23 78.36 92.27 78.28 92.3 78.19 92.32 78.1 92.33 78.01 92.33 77.91 92.33 77.82 92.32 77.73 92.29 77.64 92.27 77.55 92.23 77.45 92.18 77.36 92.13 77.25 92.05 77.16 91.97 77.11 91.92 77.07 91.88 77.03 91.83 76.99 91.78 76.96 91.73 76.93 91.68 76.89 91.63 76.87 91.57 76.85 91.52 76.83 91.46 76.81 91.39 76.8 91.34 76.79 91.27 76.78 91.21 76.78 91.15 76.78 91.09 76.78 91.02 76.79 90.95 76.8 90.89 76.81 90.83 76.83 90.76 76.85 90.69 76.88 90.63 76.9 90.56 76.97 90.43 77.05 90.29 77.14 90.15 77.24 90.03 77.29 89.97 77.34 89.92 77.39 89.87 77.45 89.83 77.5 89.78 77.56 89.74 77.62 89.71 77.67 89.67 77.73 89.64 77.79 89.62 77.85 89.6 77.92 89.58 77.97 89.57 78.04 89.56 78.1 89.55 78.17 89.54 78.23 89.54 78.29 89.54 78.35 89.55 78.41 89.56 78.48 89.57 78.53 89.59 78.6 89.61 78.66 89.63 78.78 89.69 78.91 89.75 79.01 89.83 79.1 89.9 79.18 89.98 79.25 90.06 79.31 90.15 79.37 90.24 79.41 90.34 79.44 90.44 79.45 90.5 79.46 90.57 79.46 90.64 79.46 90.71 79.45 90.78 79.45 90.85 79.43 90.94 79.41 91.01 78.88 90.83 78.89 90.78 78.9 90.73 78.91 90.68 78.91 90.64 78.91 90.58 78.9 90.53 78.89 90.49 78.88 90.44 78.86 90.4 78.84 90.35 78.81 90.31 78.79 90.27 78.75 90.24 78.71 90.2 78.67 90.17 78.63 90.14 78.57 90.1 78.5 90.08 78.43 90.05 78.37 90.04 78.3 90.03 78.23 90.04 78.16 90.04 78.09 90.06 78.02 90.09 77.95 90.12 77.89 90.17 77.82 90.23 77.75 90.3 77.68 90.37 77.62 90.46 77.55 90.56 77.49 90.66 77.43 90.77 77.39 90.87 77.36 90.96 77.33 91.05 77.32 91.13 77.31 91.21 77.32 91.28 77.33 91.35 77.35 91.42 77.37 91.48 77.41 91.54 77.45 91.59 77.49 91.64 77.55 91.68 77.61 91.73 77.66 91.75 77.7 91.77 77.76 91.79 77.8 91.81 77.85 91.81 77.9 91.82 77.95 91.82 78 91.81 78.06 91.8 78.11 91.78 78.16 91.75 78.22 91.73 78.27 91.69 78.33 91.65 78.38 91.61 78.44 91.56 78.44 91.56"/><path class="cls-9" d="M81,94l-.54-.27.06-.66-1-.48-.48.45-.53-.25,2.17-2,.53.25L81,94Zm-.43-1.42.1-1.08-.78.75.68.33Z"/><polygon class="cls-9" points="87.47 95.14 88.01 95.22 88 95.28 88 95.34 88.01 95.41 88.02 95.46 88.03 95.51 88.05 95.56 88.08 95.61 88.1 95.65 88.13 95.69 88.16 95.73 88.2 95.75 88.25 95.79 88.3 95.81 88.35 95.83 88.41 95.85 88.46 95.87 88.53 95.88 88.58 95.89 88.64 95.9 88.69 95.9 88.74 95.9 88.8 95.89 88.84 95.87 88.88 95.86 88.92 95.84 88.95 95.81 88.98 95.79 89.01 95.77 89.03 95.73 89.05 95.7 89.06 95.67 89.07 95.64 89.08 95.59 89.08 95.54 89.07 95.5 89.06 95.46 89.03 95.42 89 95.38 88.95 95.34 88.89 95.3 88.84 95.27 88.75 95.22 88.64 95.15 88.49 95.07 88.39 95.02 88.31 94.97 88.22 94.92 88.15 94.86 88.09 94.81 88.03 94.76 87.99 94.71 87.95 94.66 87.91 94.59 87.87 94.52 87.84 94.45 87.83 94.37 87.82 94.3 87.82 94.22 87.83 94.14 87.84 94.07 87.85 94.02 87.87 93.97 87.89 93.92 87.92 93.88 87.94 93.84 87.97 93.8 88.01 93.76 88.05 93.72 88.09 93.69 88.14 93.65 88.18 93.63 88.23 93.6 88.28 93.58 88.34 93.56 88.39 93.54 88.45 93.53 88.51 93.53 88.58 93.52 88.64 93.52 88.7 93.53 88.84 93.54 89 93.57 89.11 93.61 89.23 93.64 89.33 93.69 89.43 93.74 89.5 93.79 89.58 93.85 89.64 93.92 89.7 93.98 89.74 94.05 89.78 94.13 89.81 94.2 89.83 94.28 89.84 94.36 89.84 94.45 89.83 94.54 89.81 94.63 89.28 94.52 89.27 94.47 89.28 94.42 89.27 94.37 89.26 94.33 89.25 94.29 89.24 94.25 89.22 94.22 89.2 94.19 89.17 94.16 89.15 94.13 89.11 94.11 89.07 94.08 89.03 94.06 88.98 94.04 88.93 94.03 88.88 94.02 88.82 94 88.77 93.99 88.72 93.99 88.66 93.98 88.62 93.98 88.57 94 88.53 94 88.49 94.02 88.44 94.04 88.41 94.08 88.38 94.11 88.36 94.16 88.36 94.2 88.36 94.25 88.37 94.3 88.4 94.34 88.43 94.37 88.46 94.4 88.51 94.43 88.55 94.47 88.68 94.56 88.85 94.64 89.03 94.73 89.17 94.82 89.29 94.9 89.39 94.97 89.43 95.01 89.46 95.06 89.49 95.09 89.53 95.14 89.56 95.18 89.57 95.22 89.6 95.27 89.62 95.32 89.63 95.37 89.64 95.42 89.64 95.48 89.64 95.53 89.65 95.59 89.64 95.64 89.63 95.71 89.61 95.77 89.6 95.83 89.58 95.88 89.56 95.93 89.53 95.98 89.5 96.03 89.46 96.08 89.42 96.12 89.38 96.16 89.34 96.2 89.28 96.24 89.24 96.27 89.19 96.3 89.13 96.32 89.07 96.34 89.01 96.36 88.95 96.36 88.88 96.37 88.81 96.38 88.74 96.38 88.67 96.37 88.59 96.36 88.51 96.35 88.43 96.34 88.35 96.32 88.22 96.29 88.11 96.25 88 96.2 87.91 96.15 87.83 96.09 87.75 96.03 87.68 95.96 87.62 95.89 87.57 95.81 87.53 95.73 87.5 95.64 87.48 95.55 87.47 95.46 87.45 95.36 87.46 95.25 87.47 95.14 87.47 95.14"/><polygon class="cls-9" points="89.91 96.61 90.23 93.89 92.26 94.15 92.2 94.6 90.73 94.42 90.66 95.02 92.02 95.19 91.97 95.65 90.6 95.48 90.51 96.21 92.03 96.4 91.98 96.86 89.91 96.61 89.91 96.61"/><path class="cls-9" d="M92.44,96.93l.19-2.73,1.17.09H94l.17,0,.08,0h.07l.06,0,.05,0,0,0,0,0,0,0,0,0,0,0,0,0,0,0,0,0,0,0,0,.05v0l0,.06v.37l0,.07,0,.06,0,.07,0,0,0,0-.05.05,0,0,0,0-.06,0-.07,0-.07,0-.08,0H94l.09.06.07.06.07.07.06.06,0,.08.07.11.07.12.09.16.3.55-.66,0-.36-.62-.09-.15-.08-.11-.06-.1,0,0,0,0,0,0,0,0,0,0-.06,0-.06,0h-.28L93,97l-.55,0Zm.66-1.54.42,0,.18,0h.36l0,0,.05,0,0,0,0,0,0,0V95l0,0,0,0,0-.05-.05,0,0,0-.06,0h-.41l-.43,0-.05.69Z"/><polygon class="cls-9" points="95.82 97.08 94.83 94.35 95.43 94.36 96.13 96.38 96.8 94.36 97.39 94.36 96.41 97.09 95.82 97.08 95.82 97.08"/><polygon class="cls-9" points="97.79 97.1 97.66 94.38 98.22 94.35 98.34 97.08 97.79 97.1 97.79 97.1"/><polygon class="cls-9" points="100.48 95.83 101.05 95.92 101.02 96.03 101 96.14 100.98 96.23 100.94 96.33 100.9 96.42 100.85 96.49 100.8 96.57 100.74 96.64 100.67 96.7 100.6 96.75 100.52 96.8 100.44 96.84 100.35 96.88 100.26 96.91 100.16 96.94 100.05 96.96 99.91 96.97 99.79 96.98 99.72 96.97 99.66 96.96 99.6 96.95 99.54 96.94 99.48 96.93 99.43 96.9 99.37 96.88 99.31 96.86 99.26 96.83 99.21 96.79 99.16 96.76 99.11 96.72 99.05 96.68 99 96.64 98.97 96.59 98.92 96.54 98.88 96.49 98.84 96.44 98.81 96.38 98.77 96.33 98.74 96.27 98.72 96.2 98.69 96.13 98.67 96.06 98.63 95.92 98.6 95.77 98.58 95.61 98.57 95.45 98.57 95.37 98.58 95.3 98.59 95.23 98.6 95.16 98.61 95.09 98.63 95.02 98.64 94.96 98.67 94.9 98.7 94.83 98.72 94.77 98.75 94.72 98.79 94.67 98.83 94.62 98.87 94.56 98.91 94.52 98.95 94.48 99 94.44 99.05 94.4 99.1 94.36 99.15 94.33 99.21 94.3 99.26 94.27 99.33 94.24 99.39 94.22 99.51 94.19 99.66 94.16 99.77 94.15 99.89 94.14 100.01 94.15 100.12 94.16 100.22 94.19 100.32 94.23 100.42 94.28 100.51 94.33 100.56 94.37 100.61 94.42 100.66 94.46 100.7 94.52 100.75 94.58 100.78 94.64 100.83 94.71 100.86 94.79 100.34 95 100.32 94.95 100.3 94.9 100.27 94.86 100.23 94.82 100.2 94.78 100.17 94.75 100.13 94.72 100.09 94.7 100.04 94.67 100 94.66 99.95 94.64 99.91 94.63 99.85 94.63 99.8 94.62 99.75 94.62 99.7 94.63 99.63 94.64 99.56 94.67 99.49 94.69 99.43 94.73 99.38 94.76 99.33 94.81 99.28 94.86 99.24 94.92 99.21 94.98 99.18 95.06 99.16 95.13 99.14 95.22 99.13 95.32 99.14 95.42 99.14 95.53 99.16 95.64 99.18 95.77 99.2 95.88 99.23 95.98 99.27 96.08 99.31 96.16 99.36 96.23 99.41 96.29 99.46 96.35 99.52 96.39 99.57 96.43 99.64 96.46 99.69 96.48 99.76 96.49 99.83 96.5 99.9 96.5 99.97 96.49 100.03 96.48 100.08 96.47 100.13 96.45 100.17 96.43 100.21 96.4 100.26 96.37 100.29 96.34 100.33 96.3 100.36 96.25 100.39 96.21 100.41 96.16 100.43 96.1 100.45 96.04 100.47 95.98 100.48 95.91 100.48 95.83 100.48 95.83"/><polygon class="cls-9" points="101.63 96.8 101.11 94.11 101.65 94.01 102.18 96.69 101.63 96.8 101.63 96.8"/><path class="cls-9" d="M102.32,95.51l0-.1,0-.09V94.8l0-.11,0-.11,0-.1.06-.11.06-.09.06-.09.07-.08.08-.06.06,0,.06-.05.06,0,.07,0,.07,0,.07,0,.07,0,.09,0,.14,0,.14,0h.4l.06,0H104l.06,0,.06,0,.06,0,.06,0,0,0,.05,0,0,0,0,0,0,0,0,0,0,0,0,.06,0,0,0,.07,0,.06,0,.07,0,.14,0,.16,0,.16,0,.15v.48l0,.06,0,.06,0,.07,0,0,0,.06,0,0,0,.05,0,.06,0,.05,0,0-.05,0,0,0,0,0,0,0,0,0-.07,0-.06,0-.12,0-.15,0-.15,0-.14,0h-.33l-.06,0h-.06l-.06,0-.06,0-.06,0-.06,0-.06,0-.05,0,0,0,0,0,0,0,0,0,0,0,0-.05,0,0,0-.06,0-.06,0-.06,0-.07-.06-.14,0-.15Zm.54-.16,0,.1,0,.1,0,.09,0,.08.06.08,0,.06.06.06.06,0,.08,0,.07,0,.07,0,.07,0h.23l.07,0,.09,0,.07,0,.06,0,.06,0,.06-.06,0-.05.06-.06,0-.07,0-.07,0-.08v-.37l0-.11,0-.11,0-.11,0-.1,0-.09,0-.08,0-.08-.05-.06-.06-.06-.06,0-.07,0-.07,0-.07,0h-.31l-.07,0-.08,0-.08,0-.07,0-.06,0-.06.05,0,0,0,.07,0,.06,0,.07,0,.08,0,.09V95l0,.1,0,.1,0,.12Z"/><polygon class="cls-9" points="109.62 93.75 110.09 93.48 110.13 93.53 110.17 93.58 110.21 93.62 110.25 93.66 110.29 93.69 110.34 93.72 110.39 93.74 110.44 93.76 110.48 93.77 110.53 93.77 110.58 93.77 110.63 93.77 110.69 93.77 110.74 93.75 110.79 93.73 110.86 93.71 110.91 93.68 110.96 93.65 111.01 93.62 111.06 93.58 111.09 93.55 111.13 93.51 111.15 93.48 111.17 93.44 111.19 93.4 111.2 93.37 111.21 93.33 111.21 93.29 111.21 93.25 111.2 93.21 111.2 93.18 111.18 93.14 111.16 93.1 111.14 93.07 111.11 93.04 111.07 93.02 111.02 93 110.97 92.99 110.91 92.98 110.84 93 110.77 93 110.67 93.02 110.54 93.04 110.38 93.07 110.27 93.08 110.17 93.1 110.07 93.11 109.98 93.11 109.9 93.11 109.82 93.1 109.76 93.09 109.7 93.08 109.62 93.05 109.55 93.01 109.48 92.98 109.42 92.93 109.36 92.87 109.32 92.81 109.27 92.75 109.24 92.68 109.22 92.64 109.2 92.58 109.19 92.53 109.18 92.48 109.17 92.43 109.17 92.38 109.18 92.33 109.18 92.27 109.19 92.22 109.2 92.17 109.22 92.12 109.25 92.07 109.27 92.02 109.3 91.97 109.34 91.93 109.38 91.88 109.42 91.84 109.47 91.8 109.52 91.76 109.57 91.72 109.63 91.68 109.7 91.64 109.76 91.61 109.83 91.57 109.95 91.52 110.06 91.48 110.16 91.46 110.26 91.44 110.36 91.43 110.46 91.43 110.55 91.44 110.63 91.46 110.71 91.49 110.79 91.52 110.86 91.57 110.92 91.61 110.98 91.68 111.04 91.74 111.09 91.81 111.14 91.89 110.64 92.14 110.61 92.1 110.58 92.07 110.55 92.03 110.51 92 110.48 91.98 110.44 91.96 110.41 91.94 110.37 91.94 110.33 91.92 110.3 91.92 110.26 91.92 110.21 91.93 110.17 91.94 110.12 91.95 110.07 91.97 110.02 91.99 109.96 92.02 109.92 92.05 109.87 92.07 109.83 92.11 109.8 92.13 109.76 92.17 109.73 92.2 109.71 92.23 109.69 92.29 109.68 92.33 109.69 92.38 109.7 92.43 109.73 92.47 109.76 92.5 109.8 92.53 109.85 92.54 109.89 92.55 109.93 92.56 109.99 92.56 110.05 92.55 110.2 92.53 110.39 92.5 110.58 92.47 110.75 92.44 110.9 92.43 111.02 92.44 111.07 92.44 111.12 92.45 111.17 92.46 111.22 92.47 111.27 92.49 111.32 92.51 111.36 92.53 111.41 92.56 111.45 92.59 111.49 92.63 111.53 92.67 111.57 92.71 111.6 92.75 111.64 92.8 111.66 92.86 111.69 92.92 111.71 92.97 111.73 93.02 111.74 93.08 111.75 93.13 111.76 93.19 111.76 93.25 111.76 93.31 111.75 93.37 111.74 93.43 111.73 93.48 111.7 93.54 111.68 93.59 111.66 93.65 111.62 93.7 111.58 93.75 111.55 93.8 111.5 93.84 111.45 93.89 111.39 93.94 111.33 93.98 111.27 94.02 111.2 94.06 111.12 94.1 111.04 94.14 110.93 94.18 110.81 94.22 110.7 94.25 110.6 94.27 110.5 94.28 110.4 94.28 110.31 94.27 110.21 94.25 110.13 94.22 110.05 94.17 109.96 94.13 109.89 94.07 109.82 94 109.75 93.93 109.68 93.84 109.62 93.75 109.62 93.75"/><path class="cls-9" d="M114.58,92.18l-.52.29-.53-.41-.94.56.12.64-.51.3-.47-2.89.51-.3,2.34,1.81Zm-1.43-.42-.85-.69.2,1.06.65-.37Z"/><path class="cls-9" d="M113.35,89.77l.91-.6.13-.08.11-.07.1,0,.08,0,.08,0h.38l.07,0,.08,0,.07,0,.07,0,0,0,0,.08,0,0,0,0,0,0v0l0,0v.37l0,0,0,0,0,0h0l.07,0H116l0,0,0,0,0,0,.05,0,0,0,0,0,0,0,0,0,0,0,0,.08,0,.08,0,.1v.36l0,.09,0,0,0,0,0,0,0,0-.07.08-.08.07-.07.06-.12.09-.16.1-.19.13-.78.52-1.52-2.28Zm.71.07.35.53.31-.2.12-.08.1-.07.07,0,0,0,0,0,0-.05,0,0,0-.06v-.11l0-.06,0,0,0,0,0,0,0,0,0,0h-.17l-.06,0,0,0-.09,0-.11.07-.15.1-.27.17Zm.6.91.42.61.42-.28.12-.08.08-.06.06,0,0,0,0,0,0,0,0-.05,0-.06v-.11l0-.06,0-.06,0,0,0,0,0,0-.06,0h-.05l0,0h0l-.06,0-.07,0-.1,0-.12.07-.14.09-.38.25Z"/><polygon class="cls-9" points="117.16 90.53 115.53 88.33 117.16 87.13 117.44 87.5 116.25 88.37 116.61 88.87 117.72 88.05 118 88.42 116.89 89.23 117.34 89.83 118.57 88.92 118.85 89.3 117.16 90.53 117.16 90.53"/><path class="cls-9" d="M119.21,89l-1.86-2,.86-.78.15-.14.14-.11.07,0,.05,0,.06,0,0,0h0l0,0H119l0,0h.11l0,0,0,0,0,0,.06,0,0,0,0,0,0,0,0,.06,0,.06,0,.06,0,.06,0,.06v.4l0,.07,0,.07,0,.07,0,.07,0,.07.1,0H120l.13,0,.14,0,.17,0,.6.17-.48.45-.7-.17-.17,0-.14,0-.11,0h-.27l-.05,0,0,0-.06.06-.07,0-.08.08.78.84-.41.37Zm-.66-1.54.3-.27.12-.12.11-.1.07-.09,0,0,0-.05v-.19l0,0,0,0,0,0,0-.06,0,0-.06,0h-.1l-.06,0-.06,0,0,0,0,0-.07.06-.09.07-.11.1-.32.3.48.5Z"/><path class="cls-2" d="M84.72,93.93a.54.54,0,0,1-1.07,0,.54.54,0,0,1,.54-.51A.52.52,0,0,1,84.72,93.93Z"/><path class="cls-2" d="M107.76,94.3a.54.54,0,1,1-.53-.51A.53.53,0,0,1,107.76,94.3Z"/><path class="cls-10" d="M96.27,24a6.69,6.69,0,1,1-6.78,6.68A6.73,6.73,0,0,1,96.27,24Zm0,1.6a5,5,0,1,1-5.08,5,5.06,5.06,0,0,1,5.08-5Z"/><path class="cls-11" d="M87.77,30.7V29.52l3.46.34c0,.13,0,.26,0,.39v.12l-3.46.33Z"/><path class="cls-11" d="M87.91,28.58l.3-1,3.3,1.27c-.06.14-.09.31-.14.46l-3.46-.73Z"/><path class="cls-11" d="M88.59,26.8l.53-.93,3,1.9c-.08.14-.21.31-.28.46L88.59,26.8Z"/><path class="cls-11" d="M89.71,25.07l.77-.79,2.41,2.62a2.87,2.87,0,0,0-.35.35l-2.83-2.18Z"/><path class="cls-11" d="M91.31,23.65l.92-.57,1.68,3.12a3.67,3.67,0,0,0-.44.27l-2.16-2.82Z"/><path class="cls-11" d="M93,22.7l1-.32,1,3.43a3,3,0,0,0-.48.16L93,22.7Z"/><path class="cls-11" d="M94.67,22.24l1-.12L96,25.64l-.43,0-.87-3.44Z"/><path class="cls-11" d="M104.79,30.7l0-1.18-3.46.34c0,.13,0,.26,0,.39v.12l3.46.33Z"/><path class="cls-11" d="M104.64,28.58l-.29-1-3.3,1.27c.06.14.09.31.14.46l3.45-.73Z"/><path class="cls-11" d="M104,26.8l-.53-.93-3,1.9a4.34,4.34,0,0,1,.28.46L104,26.8Z"/><path class="cls-11" d="M102.85,25.07l-.78-.79L99.66,26.9a2.42,2.42,0,0,1,.36.35l2.83-2.18Z"/><path class="cls-11" d="M101.25,23.65l-.93-.57L98.65,26.2a4.68,4.68,0,0,1,.44.27l2.16-2.82Z"/><path class="cls-11" d="M99.53,22.7l-.94-.32-1,3.43a3,3,0,0,1,.48.16l1.43-3.27Z"/><path class="cls-11" d="M97.89,22.24l-1-.12-.28,3.52.43,0,.88-3.44Z"/><path class="cls-12" d="M100.61,30.65a4.3,4.3,0,1,1-4.3-4.29A4.3,4.3,0,0,1,100.61,30.65Z"/><polygon class="cls-2" points="105.1 40.71 87.45 40.71 87.45 31.32 88.67 31.32 91.91 32.63 96.19 32.85 99.97 32.55 103.21 31.32 105.1 31.32 105.1 40.71"/><polygon class="cls-13" points="104.85 40.48 87.71 40.48 87.71 31.34 89.3 31.32 93.93 33.17 98.86 33.17 103.21 31.32 104.85 31.34 104.85 40.48"/><path class="cls-14" d="M88.5,31.07l0,6.32c0,.76,0,1.52,0,2.28a3.08,3.08,0,0,1,1.3.2,9.12,9.12,0,0,0,1.36.28,4.23,4.23,0,0,0,1.28-.07,3.55,3.55,0,0,1,1.3-.11,5.59,5.59,0,0,1,1.27.43c.06,0,.22.13.28.09a.5.5,0,0,0,.16-.22,1.17,1.17,0,0,1,.33-.53,1,1,0,0,1,1.09,0,.84.84,0,0,1,.3.48.73.73,0,0,0,.11.29c.05.09.25,0,.34-.08A6.52,6.52,0,0,1,98.89,40a5.38,5.38,0,0,1,1.33,0,11,11,0,0,0,1.28.08,12,12,0,0,0,1.34-.2,6.27,6.27,0,0,1,1.3-.09V31.07a27.07,27.07,0,0,1-5.35,1,21,21,0,0,1-2.86.08c-.9,0-1.81-.14-2.7-.25a41.88,41.88,0,0,1-4.73-.87Z"/><path class="cls-2" d="M97.38,40.58a.12.12,0,0,1-.11-.06.84.84,0,0,1-.11-.3.82.82,0,0,0-.28-.46.89.89,0,0,0-.5-.14.92.92,0,0,0-.53.16,1.1,1.1,0,0,0-.29.45l0,.06a.47.47,0,0,1-.18.24c-.07,0-.19,0-.28-.05l0,0A5.19,5.19,0,0,0,93.77,40a1.76,1.76,0,0,0-.33,0,5.05,5.05,0,0,0-1,.13,4.29,4.29,0,0,1-1.29.07,7.63,7.63,0,0,1-1.36-.28l-.23-.06a3,3,0,0,0-.83-.16l-.23,0-.06,0,0-8.74.06,0a38.16,38.16,0,0,0,4.72.86c.86.11,1.78.21,2.7.26l.78,0c.6,0,1.24,0,2.08-.1a26.81,26.81,0,0,0,5.34-1l.06,0v8.85h0a5.52,5.52,0,0,0-1.3.1l-.27.05a9.19,9.19,0,0,1-1.07.14,5.09,5.09,0,0,1-.88,0l-.4,0-.69,0a3.93,3.93,0,0,0-.63,0,7,7,0,0,0-1.22.39l-.07,0A.55.55,0,0,1,97.38,40.58Zm-1-1.06a1,1,0,0,1,.56.15.9.9,0,0,1,.32.52,1.08,1.08,0,0,0,.1.27h0a.6.6,0,0,0,.18-.07l.08,0A6.43,6.43,0,0,1,98.88,40a3.13,3.13,0,0,1,.65-.06c.24,0,.48,0,.69,0l.41,0a5,5,0,0,0,.87,0,9.44,9.44,0,0,0,1-.14l.28-.05a5.7,5.7,0,0,1,1.26-.09v-8.6a26.12,26.12,0,0,1-5.29,1c-.84.07-1.49.1-2.09.1h-.78c-.93,0-1.85-.16-2.71-.26a41,41,0,0,1-4.67-.85l0,8.47.19,0a3.2,3.2,0,0,1,.86.17l.21.06a9.09,9.09,0,0,0,1.36.27A4.43,4.43,0,0,0,92.47,40a4.45,4.45,0,0,1,1-.14,2.07,2.07,0,0,1,.35,0,6,6,0,0,1,1.28.43l.06,0a.43.43,0,0,0,.16.07.43.43,0,0,0,.15-.2l0-.07a1,1,0,0,1,.32-.49A1,1,0,0,1,96.38,39.52Z"/><path class="cls-11" d="M89.15,30.73c0,1.85,0,3.71,0,5.56,0,1,0,1.92,0,2.88a6.89,6.89,0,0,1,1.35.21,6.81,6.81,0,0,0,1.26.17A11.38,11.38,0,0,0,93,39.49a4.5,4.5,0,0,1,1.37.09,3,3,0,0,1,.6.21c.08,0,.51.3.57.26s.24-.3.4-.42a.59.59,0,0,1,.53-.07A1,1,0,0,1,97,40c0,.06.12.19.2.21s.19-.09.27-.14a4.12,4.12,0,0,1,1.25-.51,5.22,5.22,0,0,1,1.19-.11c.43,0,.86.09,1.3.1a6.83,6.83,0,0,0,1.19-.1,2.71,2.71,0,0,1,1.23-.08c0-1.86,0-3.72,0-5.57,0-1,0-2,0-3.07a38.22,38.22,0,0,1-5.41,1.13L96.84,32a7.19,7.19,0,0,1-1.39,0c-.91-.11-1.83-.23-2.73-.41-1.2-.23-2.39-.51-3.57-.82Z"/><path class="cls-2" d="M97.19,40.27h0c-.09,0-.16-.12-.21-.2l0-.07a.91.91,0,0,0-.4-.38.59.59,0,0,0-.49.06.88.88,0,0,0-.18.2,1,1,0,0,1-.22.23h0a1.45,1.45,0,0,1-.45-.21L95,39.84a3.19,3.19,0,0,0-.59-.21,4.13,4.13,0,0,0-1-.1H93l-.32,0c-.32,0-.65,0-1,0a8.21,8.21,0,0,1-1.27-.17l-.17,0a5.17,5.17,0,0,0-1.17-.17h-.06v-.06c0-1,0-2,0-2.88s0-1.85,0-2.78,0-1.86,0-2.78v-.07h.07c1.25.34,2.42.61,3.56.83.8.15,1.66.28,2.73.4a6.84,6.84,0,0,0,1.37.05c.44,0,.89-.08,1.37-.15a37,37,0,0,0,5.41-1.13h.07v.07c0,.77,0,1.56,0,2.32v.75c0,.93,0,1.85,0,2.78v2.87l-.08,0a1,1,0,0,0-.33-.05,3.4,3.4,0,0,0-.64.09l-.23,0a6.08,6.08,0,0,1-1.21.1c-.22,0-.45,0-.67,0a4.34,4.34,0,0,0-.63-.05,4.63,4.63,0,0,0-1.17.1,3.93,3.93,0,0,0-1.23.51l-.06,0A.42.42,0,0,1,97.19,40.27Zm-.87-.79a.71.71,0,0,1,.21,0,1,1,0,0,1,.46.41l0,0,0,0s.1.15.14.16h0s.1,0,.15-.08l.08,0a4.05,4.05,0,0,1,1.26-.53,5.41,5.41,0,0,1,1.2-.1l.63.05.67,0a8,8,0,0,0,1.19-.1l.22,0a3.62,3.62,0,0,1,.66-.09,1.36,1.36,0,0,1,.3,0V36.58c0-.93,0-1.85,0-2.78v-.75c0-.74,0-1.5,0-2.25a38.84,38.84,0,0,1-5.35,1.11l-1.38.15a7.14,7.14,0,0,1-1.4-.05c-1.06-.12-1.93-.25-2.73-.41-1.12-.22-2.27-.48-3.5-.8,0,.9,0,1.8,0,2.71s0,1.85,0,2.78,0,1.88,0,2.83a6.15,6.15,0,0,1,1.14.17l.17,0a8.13,8.13,0,0,0,1.25.17,6.43,6.43,0,0,0,1,0l.32,0,.42,0a4.23,4.23,0,0,1,1,.11,3.23,3.23,0,0,1,.62.21l.12.07a2.8,2.8,0,0,0,.4.19.7.7,0,0,0,.18-.2,1.39,1.39,0,0,1,.21-.21A.58.58,0,0,1,96.32,39.48Z"/><path class="cls-10" d="M89.62,30.37c0,1.42,0,2.81,0,4.22,0,.71,0,1.42,0,2.13,0,.34,0,.68,0,1v.51c0,.09-.05.44,0,.49a1.12,1.12,0,0,0,.32,0l.44.09c.35.07.69.15,1,.19a8.26,8.26,0,0,0,1,.08c.35,0,.71,0,1.07,0a5.68,5.68,0,0,1,1.9.41,1.51,1.51,0,0,0,.35.14.82.82,0,0,0,.38-.09.39.39,0,0,1,.38,0c.11.07.19.19.32.21s.53-.25.71-.35a3.12,3.12,0,0,1,.87-.31,7.27,7.27,0,0,1,1.92-.05,7.84,7.84,0,0,0,1.93-.17,3,3,0,0,1,.74-.11s.17,0,.2,0,0-.28,0-.32c0-2.72,0-5.43,0-8.15-2.2.88-4.41,1.94-6.84,1.89a12.94,12.94,0,0,1-3.59-.62,17.55,17.55,0,0,1-1.67-.6l-.8-.35Z"/><path class="cls-2" d="M96.93,39.85h-.06a.55.55,0,0,1-.23-.14l-.09-.08a.34.34,0,0,0-.34,0l-.07,0a.56.56,0,0,1-.34.06.75.75,0,0,1-.25-.09l-.11,0a5.65,5.65,0,0,0-1.88-.41,5.76,5.76,0,0,0-.59,0l-.46,0h0a8.24,8.24,0,0,1-1-.09c-.29,0-.59-.09-.88-.15l-.3-.06-.3-.06h-.11a.58.58,0,0,1-.23,0c-.09,0-.09-.24-.07-.46,0,0,0-.06,0-.08V36.72c0-.38,0-.76,0-1.14v-1c0-1.28,0-2.63,0-4.22V30.3l.07,0,.75.27.8.35a17.12,17.12,0,0,0,1.67.6,13.08,13.08,0,0,0,3.57.62,15.12,15.12,0,0,0,6-1.54l.86-.35.07,0v8.23a.35.35,0,0,1,0,.06c0,.17,0,.26,0,.3a.17.17,0,0,1-.12,0h-.12a2.88,2.88,0,0,0-.71.09h0a7.24,7.24,0,0,1-1.64.17h-.63l-.65,0a4.2,4.2,0,0,0-.92.08,3.12,3.12,0,0,0-.86.31,1.2,1.2,0,0,0-.17.11A1.07,1.07,0,0,1,96.93,39.85Zm-.54-.38a.38.38,0,0,1,.21.07l.11.08a.36.36,0,0,0,.19.12c.13,0,.33-.11.49-.22a1.62,1.62,0,0,1,.19-.13,3.39,3.39,0,0,1,.88-.31,4.51,4.51,0,0,1,1-.09l.66,0h.62a7.06,7.06,0,0,0,1.62-.18h0a2.92,2.92,0,0,1,.73-.1h.17a2.06,2.06,0,0,0,0-.21V30.4l-.79.32a15.27,15.27,0,0,1-6,1.54,13.25,13.25,0,0,1-3.6-.61c-.59-.19-1.16-.39-1.68-.61l-.81-.35c-.1-.05-.5-.19-.66-.24,0,1.55,0,2.88,0,4.14v3.75a.76.76,0,0,0,0,.35.47.47,0,0,0,.18,0H90l.3.06.3.06c.29.06.58.12.88.16a7.78,7.78,0,0,0,1,.08H93l.6,0a5.79,5.79,0,0,1,1.91.42l.13.06a1,1,0,0,0,.22.08.57.57,0,0,0,.28-.06l.07,0A.63.63,0,0,1,96.39,39.47Z"/><path class="cls-8" d="M90,38.15l5.52.07,6.76.07h.25l0-6.35c0-.7,0-1.4,0-2.09a10.39,10.39,0,0,1-2.14,1.6,6.89,6.89,0,0,1-2.48.6l-1.49.11a3.15,3.15,0,0,1-.61-.06l-.7-.1a11.38,11.38,0,0,1-2.61-.67,10.33,10.33,0,0,1-2.45-1.57S90,37.47,90,38.15Z"/><path class="cls-2" d="M102.6,38.35h-.06v0l-7-.08-2.69,0L90,38.2H90v-.05c0-.68.08-8.31.09-8.39v-.11l.08.07a10.23,10.23,0,0,0,2.45,1.56,11.27,11.27,0,0,0,2.59.67l.57.08h.12l.16,0a2.35,2.35,0,0,0,.45,0L98,32a6.77,6.77,0,0,0,2.46-.59,9.7,9.7,0,0,0,2.13-1.59l.09-.08ZM90.07,38.1l2.77,0,2.69,0,7,.08,0-8.27a9.6,9.6,0,0,1-2.06,1.53,7,7,0,0,1-2.5.6l-1.48.12a2,2,0,0,1-.48,0l-.15,0-.13,0-.56-.08a11,11,0,0,1-2.62-.67,10.31,10.31,0,0,1-2.39-1.5C90.14,30.81,90.07,37.22,90.07,38.1Z"/><polygon class="cls-15" points="91.14 30.13 91.23 30.25 91.32 30.37 91.43 30.49 91.54 30.6 91.66 30.7 91.8 30.81 91.94 30.9 92.08 30.99 92.23 31.07 92.39 31.13 92.56 31.19 92.73 31.25 92.91 31.28 93.09 31.31 93.18 31.32 93.27 31.32 93.36 31.32 93.46 31.32 93.67 31.31 93.85 31.29 94 31.27 94.15 31.24 94.28 31.22 94.41 31.21 94.53 31.19 94.66 31.19 94.8 31.2 94.95 31.22 95.12 31.25 95.31 31.31 95.53 31.38 95.78 31.48 96.07 31.61 96.4 31.76 96.51 31.65 96.61 31.55 96.71 31.47 96.81 31.4 96.9 31.33 96.99 31.27 97.08 31.22 97.16 31.18 97.24 31.15 97.32 31.12 97.41 31.1 97.48 31.08 97.56 31.07 97.64 31.07 97.72 31.07 97.79 31.07 97.95 31.09 98.11 31.11 98.29 31.15 98.47 31.19 98.66 31.22 98.87 31.25 99.1 31.28 99.35 31.3 99.63 31.3 99.89 31.27 100.12 31.25 100.33 31.21 100.52 31.16 100.69 31.1 100.83 31.04 100.97 30.97 101.09 30.89 101.2 30.81 101.3 30.73 101.39 30.65 101.55 30.47 101.69 30.29 101.75 30.79 101.8 31.29 101.85 31.79 101.91 32.29 101.96 32.8 102.01 33.29 102.07 33.8 102.12 34.3 102.17 34.8 102.23 35.3 102.28 35.8 102.33 36.3 102.39 36.8 102.44 37.3 102.5 37.8 102.56 38.3 102.5 38.29 102.44 38.29 102.38 38.28 102.32 38.29 102.2 38.29 102.07 38.32 101.77 38.4 101.42 38.48 101.23 38.53 101.02 38.57 100.79 38.61 100.55 38.64 100.43 38.65 100.28 38.65 100.14 38.66 100 38.66 99.85 38.66 99.7 38.65 99.53 38.65 99.36 38.63 99.15 38.63 98.95 38.63 98.76 38.65 98.58 38.67 98.39 38.7 98.22 38.74 98.04 38.79 97.86 38.84 97.69 38.91 97.51 38.97 97.33 39.05 97.14 39.12 96.76 39.29 96.35 39.48 96.2 39.39 96.03 39.31 95.86 39.23 95.67 39.16 95.47 39.08 95.27 39.01 95.06 38.95 94.85 38.9 94.64 38.84 94.42 38.8 94.2 38.76 93.98 38.73 93.77 38.71 93.55 38.69 93.34 38.68 93.14 38.68 92.79 38.68 92.47 38.67 92.18 38.65 91.93 38.62 91.7 38.58 91.49 38.53 91.29 38.48 91.12 38.44 90.81 38.33 90.54 38.24 90.41 38.21 90.28 38.17 90.15 38.16 90.01 38.15 91.14 30.13 91.14 30.13"/><path class="cls-2" d="M96.35,39.54l-.18-.1-.34-.16-.37-.15-.2-.06L95.05,39l-.43-.1-.43-.09-.43-.05-.43,0h-.86l-.55-.06-.23,0-.41-.09-.17,0-.58-.2-.26-.07H90l1.14-8.08.09,0,.18.24.22.23.12.09.13.1.14.1.14.08.15.08.15.06.17.06.17.06.17,0,.18,0h.56l.33-.05.28,0,.25,0h.28l.16,0,.17,0,.2.06.22.07.54.23.3.13.08-.08.2-.18.29-.21.18-.09.17-.06.16,0,.16,0h.16L98,31l.34.06.18,0,.4.07.23,0h.52l.26,0,.22,0,.21,0,.19-.05.16-.06.28-.13.11-.07.11-.08.19-.16.37-.45.82,7.64.07.56-.24,0h-.18l-.12,0-.84.21-.21,0-.47.07-.41,0h-.62l-.18,0h-.58l-.37,0-.17,0-.35.1-.35.13-.37.15-.38.17Zm-3.21-.91h.2l.43,0,.44.06.44.08.43.11.21.06.2.07.39.15.34.17.13.07.39-.18.38-.17.55-.22.17-.06.36-.1.18,0,.38-.06h.6l.18,0,.6,0,.41,0,.46-.07.21,0,1-.24h.32l-.06-.43-.79-7.39-.22.26-.19.17-.12.09L101,31l-.29.14-.17.06-.19.05-.22,0-.24,0-.26,0h-.28l-.25,0-.23,0-.41-.07-.36-.07-.31-.05h-.3l-.23.07-.16.07-.09.05-.27.19-.2.18-.13.13-.36-.16-.54-.23-.21-.07-.2-.05-.16,0-.15,0h-.26l-.38,0-.14,0-.34,0-.2,0h-.2l-.18,0-.19,0-.18,0-.18-.05-.17-.07-.16-.07L92.06,31,91.91,31l-.14-.1-.14-.1-.12-.11-.23-.23-.11-.14-1.1,7.83h.08l.14,0,.27.07.58.2.36.09.21.05.23,0,.54,0h.66Z"/><line class="cls-16" x1="96.4" y1="31.78" x2="96.36" y2="39.5"/><path class="cls-9" d="M97.46,40.6H95.22"/><path class="cls-17" d="M95.44,40.49s.23-1,1-1,.88,1,.88,1Z"/><path class="cls-18" d="M95.67,40.49s.17-.75.71-.75.66.75.66.75Z"/><rect class="cls-13" x="87.43" y="41.61" width="17.7" height="0.24"/><polygon class="cls-1" points="92.58 68.58 99.97 68.58 98.17 74.13 94.39 74.13 92.58 68.58 92.58 68.58"/><path class="cls-5" d="M98.41,74.45H94.15l-2-6.19h8.28Zm-3.79-.64h3.32l1.59-4.91H93Z"/><polygon class="cls-19" points="93.69 45.72 98.88 45.76 97.66 66.66 95.06 66.66 93.69 45.72"/><rect class="cls-20" x="92.11" y="42.29" width="8.33" height="2.51"/><path class="cls-10" d="M94.85,67.05l-.37-.32L93.05,45.55l.36-.36h5.73l.37.36L98.08,66.73l-.37.32Zm2.52-.68,1.38-20.5h-5l1.39,20.5Z"/><path class="cls-10" d="M92.37,42.57v1.94h7.82V42.57Zm8.55-.34v2.63l-.37.34H92l-.36-.34V42.23l.36-.34h8.55l.37.34Z"/></g></g></svg>